<svg width="170" height="167" viewBox="0 0 170 167" fill="none" xmlns="http://www.w3.org/2000/svg">
<path d="M34.9954 29.4657L35.8369 29.4041C38.1744 29.233 42.4977 29.2221 48.8067 29.3714L56.6059 29.0122L56.8163 28.9968C60.3693 28.7367 62.9519 28.3832 64.5642 27.9362C65.2792 29.9989 65.7444 32.5029 65.96 35.4482L65.9857 35.7988C66.078 37.061 65.8437 37.7127 65.2827 37.7537L65.0227 38.0548C65.0364 38.2418 65.3323 38.4316 65.9104 38.6243L66.0507 38.614L66.0712 38.8945C65.8215 39.3358 65.0222 39.6528 63.6733 39.8455C62.5513 39.9276 61.9629 39.5947 61.9082 38.8467L61.7149 37.1688L61.5489 33.938C61.5181 33.5172 60.1236 33.4078 57.3654 33.6096L53.1579 33.9175L50.7685 34.0219C50.3477 34.0527 50.301 37.9101 50.6284 45.5942C50.8098 51.926 50.9826 56.2139 51.1468 58.4579L51.3007 60.5616C51.3452 61.1694 51.181 61.8159 50.8082 62.5012L50.8133 62.5713C51.1873 62.544 51.4336 63.0194 51.5522 63.9978L51.4188 65.065L51.2786 65.0753L51.2734 65.0052L51.2426 64.5844L51.5027 70.0644C51.5437 70.6254 53.8938 70.947 58.5528 71.029C59.465 71.2912 59.9416 71.7029 59.9827 72.2639C59.6703 73.1327 59.5603 74.1983 59.6526 75.4605C59.5124 75.4708 59.4594 75.7097 59.4936 76.1772L59.2336 76.4782C54.2108 76.5638 49.5957 76.7605 45.3882 77.0685L43.7753 77.1865C41.6248 77.3439 39.9721 77.5588 38.817 77.8314C38.7098 77.6512 38.4099 76.1221 37.9173 73.2442L37.9874 73.239L38.9999 73.5879L39.0701 73.5828L39.3352 73.3519L39.33 73.2818C39.2194 73.0549 38.9771 72.9551 38.6031 72.9825L38.3774 72.7875L38.3671 72.6473C38.3568 72.507 39.3665 72.1746 41.3961 71.6501C41.3859 71.5098 43.0153 71.2966 46.2844 71.0103C46.6584 70.983 46.8043 69.4448 46.7222 66.3958L46.7443 61.8821C46.0396 58.0326 45.6531 55.6404 45.5846 54.7054L43.7971 40.8771L43.6637 39.0539L43.6141 36.449L43.4071 35.5476L43.6465 34.9661L43.6209 34.6155C43.5901 34.1947 41.7264 34.0961 38.0297 34.3197C35.3752 34.6549 34.0565 34.9394 34.0736 35.1732C33.7316 36.2792 33.4288 37.9229 33.1655 40.1042L32.7054 40.5608L32.56 40.501L32.0691 40.5369C31.8958 40.7376 31.6923 40.8465 31.4585 40.8636L29.5053 41.1475C29.4403 40.2593 29.3736 39.3477 29.3052 38.4127C29.2801 37.4275 29.2487 36.6778 29.2111 36.1635C29.2202 35.6459 29.2162 35.2702 29.1991 35.0364L28.6534 32.3973C28.6124 31.8363 28.9391 31.4834 29.6335 31.3386L30.4134 30.4355L30.764 30.4098L31.4567 31.2052L31.597 31.1949C32.3199 30.155 33.4527 29.5786 34.9954 29.4657ZM50.8984 30.9809L50.7035 31.2066C50.7206 31.4404 51.4806 31.5493 52.9834 31.5333C53.7713 31.3816 54.1618 31.259 54.155 31.1655L54.1447 31.0253C53.57 30.8793 52.5581 30.8594 51.1088 30.9655L50.8984 30.9809ZM60.2285 32.2721L59.5273 32.3234L59.5324 32.3935C59.643 32.6204 59.8386 32.7236 60.1191 32.7031L60.5398 32.6723L60.5295 32.532L60.2285 32.2721ZM61.9816 32.1438L61.631 32.1694L61.6515 32.4499L61.8619 32.4345L61.9868 32.2139L61.9816 32.1438ZM46.9629 35.0054L46.9681 35.0755L47.1938 35.2705C47.6613 35.2363 48.1066 34.8982 48.5296 34.2562L48.5194 34.116L48.1636 34.0715C47.7429 34.1023 47.3426 34.4136 46.9629 35.0054ZM32.0503 35.4622L31.7253 35.8385L31.7664 36.3995L31.9973 36.6646L32.1375 36.6544L32.4625 36.2781L32.4265 35.7872L32.1204 35.4571L32.0503 35.4622ZM44.7839 35.0944L44.8096 35.445C45.0012 36.136 45.1671 36.4763 45.3073 36.4661C45.5411 36.449 45.7093 36.1782 45.8119 35.6536L45.776 35.1628C45.7554 34.8823 45.5747 34.6605 45.2338 34.4974C44.9065 34.5214 44.7566 34.7204 44.7839 35.0944ZM63.2114 33.5343L63.0712 33.5446L62.9275 34.4716L63.2884 34.5862L63.4834 34.3604L63.4423 33.7994L63.2114 33.5343ZM47.8284 37.1981L47.7583 37.2032L47.6796 38.055L47.7617 39.177L47.902 39.1667L47.9003 38.1798L47.8284 37.1981ZM63.1191 38.0531L62.9891 38.2036L63.0148 38.5542L63.155 38.544L63.415 38.2429L63.4099 38.1728L63.1892 38.0479L63.1191 38.0531ZM48.9214 43.4631L48.7812 43.4734L48.8257 46.0082L48.9488 47.6912C49.0344 48.8599 49.194 49.4357 49.4278 49.4186L49.568 49.4084L49.7117 48.4813L48.9214 43.4631ZM46.06 45.7876L45.9351 46.0082L46.0155 46.1433L46.0857 46.1382L46.06 45.7876ZM47.2163 50.9905L47.0059 51.0059C46.8109 52.1952 46.7631 53.4677 46.8623 54.8234L46.9239 55.6649C47.0881 57.9089 47.3806 59.0155 47.8013 58.9847C47.9416 58.9745 48.0077 58.5936 47.9997 57.8422L47.3378 54.5771L47.5755 53.0087L47.2163 50.9905ZM48.4957 60.7669L48.2152 60.7875L48.3025 61.9796L49.0106 62.9853L48.9849 62.6346C48.8926 61.3724 48.7295 60.7498 48.4957 60.7669ZM42.7148 72.3291L42.3899 72.7054L42.4155 73.056C42.4224 73.1495 42.5193 73.1894 42.7063 73.1757L44.1687 72.9277L44.1533 72.7173C43.9423 72.4037 43.5797 72.2658 43.0655 72.3034L42.7148 72.3291ZM41.0524 72.7327L40.842 72.7481L40.7171 72.9688L40.9429 73.1638L41.2234 73.1432L41.3483 72.9226L41.0524 72.7327ZM55.9907 72.6265C56.7056 72.7622 57.5306 72.7958 58.4656 72.7274L58.5956 72.5769L58.5802 72.3665L57.8636 72.2075L56.4611 72.3101C56.1372 72.3808 55.9804 72.4863 55.9907 72.6265ZM54.7251 73.6356L54.4651 73.9367C54.6293 74.2537 54.875 74.4002 55.2023 74.3762L55.623 74.3454C55.9035 74.3249 56.0854 74.2411 56.1686 74.094L56.1583 73.9538C56.1447 73.7668 55.8071 73.6505 55.1458 73.6049L54.7251 73.6356ZM48.0033 74.2686L47.3825 74.455L47.403 74.7355L48.0392 74.7594L49.021 74.6876C49.3015 74.6671 49.4583 74.5616 49.4913 74.3712C49.2473 74.248 48.8916 74.2036 48.4241 74.2378L48.0033 74.2686ZM43.1151 74.9083L42.7747 75.0742L42.7901 75.2846L43.9275 75.4128L44.8238 75.1358L44.8186 75.0656L44.5176 74.8057L43.1151 74.9083ZM40.057 76.4716L40.0672 76.6119L40.2879 76.7367L40.4281 76.7265C40.7417 76.5155 40.8814 76.1763 40.8472 75.7088L40.842 75.6387L40.6163 75.4437L40.5461 75.4488C40.1892 75.7099 40.0262 76.0509 40.057 76.4716ZM58.5135 74.3454L58.2536 74.6464L58.2689 74.8568L58.5597 74.9765L58.7496 74.6806L58.7342 74.4703L58.5135 74.3454ZM80.5119 40.6578L82.5164 41.0751L83.1475 41.0289C85.9081 42.1429 88.5004 43.5277 90.9246 45.1833C93.4594 47.0658 94.7644 48.5213 94.8397 49.5498L94.6995 49.56C94.2776 48.9329 93.8796 48.633 93.5056 48.6604L93.4355 48.6655C93.2952 48.6758 93.2319 48.7744 93.2456 48.9614C93.4703 49.462 93.956 50.3195 94.7029 51.5338L94.8431 51.5235C94.9366 51.5167 95.0364 51.2744 95.1425 50.7966L95.2126 50.7915C95.3562 50.828 95.5695 51.4939 95.8523 52.7892L96.586 54.1455L96.5125 55.0674L96.9076 57.5765C96.6659 58.7692 96.4749 60.3342 96.3347 62.2715C96.2127 63.1734 94.2818 66.6517 90.5418 72.7065C88.8018 74.6198 87.0436 75.6415 85.2671 75.7715C83.6445 76.0783 81.8048 76.3069 79.7478 76.4574L78.4154 76.555C77.6206 76.6131 75.4906 76.0875 72.0254 74.9781C67.4941 71.5027 65.1548 68.7598 65.0077 66.7496C64.3076 65.5318 63.7078 64.4007 63.2083 63.3562C63.1639 62.7485 63.6479 60.6921 64.6604 57.1869C64.503 55.0364 64.9078 53.5028 65.8747 52.586C67.7264 47.7035 70.2839 44.4378 73.5473 42.789C76.4138 41.4982 78.7354 40.7878 80.5119 40.6578ZM69.5008 63.6007L69.5316 64.0215C70.2785 65.2358 71.1023 66.5386 72.0031 67.9297C72.0373 68.3972 72.9735 68.9866 74.8116 69.6981C75.7249 70.6183 77.3475 71.2751 79.6793 71.6684L80.9518 71.7163C82.978 71.145 84.4882 70.588 85.4825 70.0452L87.8531 67.7567C90.2658 64.7601 91.3553 62.3069 91.1215 60.397L91.0753 59.7658C90.7401 59.0384 90.5109 57.8331 90.3877 56.1501C90.2919 54.8411 90.3101 53.8058 90.4424 53.0441C90.4184 52.7169 89.4469 51.9655 87.5279 50.7899C86.082 49.0157 84.6425 47.9695 83.2092 47.6514L82.3677 47.713C76.915 48.347 74.2127 48.9913 74.2606 49.6458C73.134 50.9503 72.3798 52.204 71.9978 53.4069C70.6181 55.1059 69.9471 56.2125 69.9847 56.7268C69.7043 58.6743 69.5429 60.9656 69.5008 63.6007ZM70.4327 46.4714L70.248 46.8374L70.2685 47.1179C70.549 47.0974 71.9031 46.0113 74.3306 43.8596L74.8762 43.6082L75.3021 43.6475C78.4104 43.0911 79.9543 42.6726 79.9338 42.3921L79.9286 42.322L78.7912 42.1937C75.6122 42.4263 72.8261 43.8522 70.4327 46.4714ZM76.0103 47.5437L76.0154 47.6139L76.171 47.814L77.1528 47.7421L82.0495 46.2558L82.0393 46.1155L80.6864 45.9325C77.5347 46.5392 75.976 47.0762 76.0103 47.5437ZM66.2785 65.8106L66.0134 66.0415L66.0493 66.5324C66.2591 68.115 66.7683 68.9708 67.5767 69.0996L67.6417 69.0243L67.6366 68.9542C67.1519 66.8277 66.6992 65.7798 66.2785 65.8106ZM75.6955 45.1698L75.7212 45.5204C79.3369 44.8328 81.1396 44.4188 81.1293 44.2786L80.5529 44.1093L80.4828 44.1144C78.2388 44.2786 76.6431 44.6304 75.6955 45.1698ZM81.4611 42.0688C81.7428 42.7062 82.281 42.9958 83.0757 42.9376L83.7821 42.9565L83.9172 42.8761L83.8916 42.5254C83.8539 42.0112 83.3408 41.7432 82.3522 41.7216C81.7479 41.8128 81.4509 41.9285 81.4611 42.0688ZM70.8641 72.5955L70.3732 72.6315L70.3937 72.912C71.0459 73.4752 72.1668 73.6987 73.7563 73.5824L74.5277 73.5259C74.27 73.2158 73.0488 72.9057 70.8641 72.5955ZM82.6246 74.3434L82.6348 74.4837C82.6451 74.6239 83.0043 74.7151 83.7124 74.7573C84.5071 74.6991 84.8959 74.5532 84.8788 74.3194L84.8686 74.1792C84.8081 73.9956 84.6308 73.8206 84.3366 73.6541L83.7055 73.7003C83.1913 73.7379 82.8309 73.9523 82.6246 74.3434ZM94.9732 60.0446C95.1226 61.4437 95.2942 62.1831 95.4881 62.2629L95.6283 62.2527C95.5907 61.7384 95.76 61.162 96.1363 60.5235L96.1209 60.3131L95.2725 59.3177L95.1323 59.3279C95.0388 59.3348 94.9858 59.5737 94.9732 60.0446ZM89.4623 48.3218L89.1818 48.3423C89.5068 48.9296 90.2223 49.3942 91.3283 49.7363L91.6088 49.7157L91.8038 49.49L91.7987 49.4198C90.9423 48.6365 90.1635 48.2705 89.4623 48.3218ZM87.7605 46.2608L87.7707 46.4011C87.952 46.9518 88.6493 47.4883 89.8625 48.0105L90.0729 47.9951L90.1977 47.7745L90.1926 47.7044C89.9349 47.3942 89.1242 46.913 87.7605 46.2608ZM82.9629 44.2854L82.8277 44.3658C83.7673 45.002 84.4942 45.3014 85.0085 45.2637L85.0683 45.1183L85.0632 45.0482C84.2707 44.4952 83.5706 44.2409 82.9629 44.2854ZM75.6993 73.1582L75.7147 73.3686C75.7352 73.6491 76.4 73.7414 77.709 73.6456L77.774 73.5704L77.7637 73.4301C77.1354 73.1941 76.4473 73.1035 75.6993 73.1582ZM86.4828 43.2523L86.2878 43.4781C86.8499 44.0949 87.3881 44.3846 87.9024 44.3469C87.8648 43.8327 87.4383 43.4644 86.623 43.242L86.4828 43.2523ZM69.9009 51.7274L69.9368 52.2183L70.1472 52.2029C70.7139 51.5974 70.9852 51.131 70.9613 50.8038L70.9562 50.7336L70.6055 50.7593C70.3387 50.9668 70.1038 51.2895 69.9009 51.7274ZM85.513 47.3418C85.8278 47.7888 86.1721 47.9986 86.5461 47.9712L86.606 47.8258L86.5957 47.6856C86.5649 47.2648 86.3625 47.0681 85.9885 47.0955C85.6647 47.1662 85.5062 47.2483 85.513 47.3418ZM93.6649 65.2869L93.67 65.357C94.044 65.3296 94.3439 64.9317 94.5696 64.1632L94.5594 64.0229L94.349 64.0383C94.0685 64.0588 93.8405 64.475 93.6649 65.2869ZM71.1066 47.9731C71.5274 47.9423 71.9042 47.6327 72.2372 47.0444L72.2218 46.834C71.4441 47.1259 71.0724 47.5056 71.1066 47.9731ZM94.6945 63.9425L95.0451 63.9169L95.341 64.1067C95.333 63.3553 95.1922 63.0366 94.9185 63.1506L94.7783 63.1609L94.6722 62.6751L94.6945 63.9425ZM86.4472 74.5572L86.5174 74.552C87.3383 74.2099 87.742 73.9454 87.7283 73.7584L87.5778 73.6284C86.9404 73.9101 86.5635 74.2196 86.4472 74.5572ZM69.2118 70.2489L68.9416 70.4097L68.9518 70.55L69.5539 71.0699L69.8344 71.0494C69.8105 70.7221 69.6029 70.4553 69.2118 70.2489ZM74.2985 74.2477L74.3036 74.3178L75.2153 74.2511L75.3452 74.1006L75.1896 73.9005L75.0493 73.9108C74.5818 73.945 74.3316 74.0573 74.2985 74.2477ZM95.7309 54.9836L95.5359 55.2094L95.5564 55.4899L95.7873 55.755L96.0473 55.454L96.0268 55.1735L95.801 54.9785L95.7309 54.9836ZM65.9038 54.9104C66.1375 54.8933 66.3359 54.7143 66.499 54.3734L66.4887 54.2331C66.068 54.2639 65.873 54.4897 65.9038 54.9104ZM64.2842 62.643L64.1593 62.8636C64.2368 63.281 64.3224 63.4862 64.4159 63.4794L64.551 63.399L64.5253 63.0484L64.3543 62.6379L64.2842 62.643ZM81.822 45.0739L81.8272 45.144L82.4874 44.5317L82.342 44.4719C81.895 44.7866 81.7217 44.9873 81.822 45.0739ZM67.1318 52.4235L67.2019 52.4184C67.3855 52.358 67.4653 52.1641 67.4414 51.8369L67.3011 51.8471C67.1677 51.9509 67.1113 52.143 67.1318 52.4235ZM68.1684 60.8077L67.9084 61.1088L67.9187 61.249L68.129 61.2336L68.2539 61.013L68.2385 60.8026L68.1684 60.8077ZM71.5308 49.9161L71.2503 49.9366L71.2709 50.2171L71.4111 50.2068L71.5411 50.0563L71.5308 49.9161ZM107.572 39.5235L109.525 39.2395C110.348 42.1403 110.436 43.6614 109.788 43.8028C109.18 43.8472 110.219 46.4738 112.903 51.6824C114.12 54.1784 115.075 55.9885 115.768 57.1128C117.366 60.3328 118.376 61.9274 118.797 61.8966C118.937 61.8864 119.191 62.1498 119.56 62.6868L119.64 62.8219L120.412 62.7655C120.926 62.7278 121.642 60.6309 122.56 56.4747C126.472 47.6344 127.444 43.2626 125.477 43.3596C125.384 43.3664 125.269 43.3984 125.132 43.4554C125.276 41.5649 125.229 39.9702 124.993 38.6715L125.323 38.3653C131.411 38.0608 134.467 38.0722 134.491 38.3994C134.725 38.3823 134.929 39.5659 135.103 41.9501C134.879 43.3766 134.509 44.1086 133.995 44.1463C133.477 44.1371 133.197 44.1577 133.154 44.2078C133.11 44.258 133.232 44.3196 133.52 44.3926L133.029 44.4285C131.431 47.6474 130.667 49.7244 130.735 50.6594C130.342 52.9912 129.734 54.6337 128.91 55.587C127.769 59.9005 126.859 62.8811 126.181 64.5288C125.881 64.9267 125.642 66.1662 125.466 68.2471L122.81 73.3766C121.6 76.7551 119.842 80.0328 117.537 83.2095L114.27 85.7751C112.895 86.2517 111.81 86.5191 111.015 86.5773C107.556 86.8305 105.8 86.6064 105.749 85.9052C105.358 85.6988 105.006 85.0666 104.694 84.0084C103.941 83.3585 102.896 80.9674 101.56 76.8352L101.55 76.6949C101.516 76.2274 101.966 75.9595 102.901 75.891C103.696 75.8329 105.067 75.3095 107.016 74.3209C107.624 74.2764 108.623 76.3653 110.013 80.5876C110.412 81.5454 110.705 82.0175 110.892 82.0038L111.453 81.9627C111.817 81.7951 112.15 81.2067 112.452 80.1976C112.732 80.1771 113.578 78.8932 114.99 76.3458C115.582 74.7985 116.229 73.3647 116.931 72.0443L117.08 71.1874L116.977 69.7849C116.879 69.087 116.311 68.0711 115.274 66.737C114.222 65.2159 113.365 63.7747 112.701 62.4132C110.073 56.6835 107.171 51.3968 103.997 46.5531C103.796 46.3798 103.579 46.3017 103.345 46.3188L99.0831 46.8422L98.8573 46.6472L98.5477 44.3434L98.1868 41.3383L99.408 40.6849L106.299 39.4756L107.572 39.5235ZM127.485 39.9696L126.628 39.8208L128.293 40.404L129.259 40.1218L129.399 40.1116L130.602 40.1646L130.591 40.0243C130.578 39.8373 130.1 39.7313 129.158 39.7062L128.106 39.7832C127.685 39.814 127.479 39.8761 127.485 39.9696ZM132.379 39.4L132.249 39.5505L132.254 39.6206C132.361 39.8008 132.51 39.9074 132.7 39.9405L133.952 39.7079L133.937 39.4975C133.88 39.3607 133.711 39.3025 133.431 39.323L132.379 39.4ZM99.4097 44.5623L99.2746 44.6427L99.3157 45.2037L99.6868 45.4585L100.598 45.3918C101.577 45.2732 102.057 45.097 102.04 44.8633C102.027 44.6763 101.15 44.576 99.4097 44.5623ZM105.918 44.8615L105.718 45.0172C105.759 45.5782 106.139 46.2789 106.858 47.1192L106.929 47.1141L106.872 46.3427C106.814 45.5479 106.566 45.0491 106.128 44.8461L105.918 44.8615ZM131.577 41.9262L131.587 42.0665L131.888 42.3265C133.497 41.8327 134.293 41.469 134.276 41.2352L134.05 41.0402L133.769 41.0608C132.424 41.3002 131.693 41.5887 131.577 41.9262ZM130.569 41.6475L130.369 41.8031L130.395 42.1537C130.555 42.424 130.846 42.5437 131.267 42.5129L131.332 42.4376L131.306 42.087L130.78 41.6321L130.569 41.6475ZM130.463 44.0522L130.113 44.0779L130.138 44.4285L130.489 44.4029L130.463 44.0522ZM130.331 46.1064L130.121 46.1218C128.558 49.8082 127.688 51.7284 127.511 51.8823L127.547 52.3732C127.561 52.5602 127.795 52.8721 128.25 53.3088L127.862 54.7472L128.002 54.7369C128.585 53.7073 129.342 51.2078 130.273 47.2386L130.331 46.1064ZM121.54 66.6309L121.566 66.9815L121.917 66.9559C122.665 66.9011 123.459 64.587 124.299 60.0134C124.292 59.9199 124.507 59.6457 124.944 59.1908C124.917 58.8168 125.038 58.5494 125.308 58.3886L125.303 58.3185L125.052 57.7729C125.251 57.2883 125.25 57.2649 125.047 57.7027C124.967 57.8966 124.805 58.2609 124.563 58.7957C123.954 60.1092 123.406 61.3008 122.921 62.3703C122.782 63.0385 122.321 64.4587 121.54 66.6309ZM113.192 56.5963L113.122 56.6014L113.132 56.7416C114.312 59.3813 114.996 60.6943 115.183 60.6806L115.253 60.6755L115.243 60.5352C114.156 57.8887 113.473 56.5757 113.192 56.5963ZM125.921 61.9393L125.991 61.9342C126.739 61.8794 127.216 60.0585 127.424 56.4712L127.354 56.4764C127.167 56.4901 126.976 57.0915 126.781 58.2808C126.243 59.9182 125.956 61.1377 125.921 61.9393ZM113.047 59.4269L112.852 59.6527L112.867 59.8631L113.088 59.9879L113.358 59.8271L113.353 59.757L113.047 59.4269ZM115.279 61.0261L115.084 61.2519L115.094 61.3921L115.54 61.7119C115.681 61.7017 115.746 61.6264 115.735 61.4862C115.628 61.306 115.499 61.1509 115.349 61.021L115.279 61.0261ZM121.198 71.591L121.209 71.7312L121.559 71.7055C121.887 71.6816 122.456 70.4649 123.266 68.0556L123.261 67.9855C122.607 68.0334 121.919 69.2352 121.198 71.591ZM118.375 69.6121L118.38 69.6822L118.45 69.6771C118.824 69.6497 118.999 69.4724 118.975 69.1452L118.944 68.7244L118.664 68.7449C118.437 68.8555 118.34 69.1446 118.375 69.6121ZM120.752 74.1616L120.253 75.0442L120.338 75.2494C120.735 74.8914 120.92 74.5254 120.892 74.1514L120.752 74.1616ZM104.866 76.7342L104.671 76.96C105.083 77.4469 105.327 77.899 105.405 78.3163L106.007 78.8363L106.282 78.7456L106.257 78.395C106.205 77.6937 105.859 77.1316 105.217 76.7086L104.866 76.7342ZM114.381 80.5499L114.386 80.6201C114.854 80.5858 115.278 79.9673 115.66 78.7643L115.52 78.7746C114.98 79.0961 114.6 79.6879 114.381 80.5499ZM106.52 80.0677L106.38 80.078L106.395 80.2883C106.433 80.8026 106.647 81.1629 107.038 81.3693L107.239 81.2136L107.228 81.0734C107.201 80.6994 106.965 80.3642 106.52 80.0677ZM116.172 81.8994L115.602 82.7871L115.753 82.9171L115.823 82.9119C117.037 82.1651 117.737 81.4558 117.923 80.7842C117.723 80.6109 117.529 80.5311 117.342 80.5448L117.061 80.5653C116.64 80.5961 116.344 81.0408 116.172 81.8994ZM108.609 82.5939L108.188 82.6247L108.203 82.8351L108.509 83.1652L109.14 83.119L109.341 82.9633C109.323 82.7296 109.079 82.6064 108.609 82.5939ZM112.072 83.6799L113.401 84.4992L113.682 84.4787C113.865 84.4182 113.945 84.2244 113.921 83.8971L113.895 83.5465C113.838 83.4097 113.646 83.3532 113.319 83.3772L112.688 83.4234C112.267 83.4542 112.062 83.5397 112.072 83.6799ZM109.664 84.4907L109.609 84.7062C109.773 85.0232 110.089 85.1646 110.557 85.1303L111.538 85.0585L111.663 84.8379L111.658 84.7677C111.641 84.534 111.35 84.4143 110.786 84.4086L109.664 84.4907Z" fill="#FFDB15"/>
<path d="M32.6358 25.625L33.4773 25.5634C35.8148 25.3923 40.1381 25.3814 46.447 25.5307L54.2463 25.1715L54.4567 25.1561C58.0097 24.8961 60.5923 24.5425 62.2046 24.0956C62.9196 26.1582 63.3848 28.6622 63.6004 31.6075L63.626 31.9581C63.7184 33.2203 63.4841 33.872 62.9231 33.913L62.6631 34.2141C62.6768 34.4011 62.9727 34.5909 63.5508 34.7836L63.6911 34.7734L63.7116 35.0539C63.4619 35.4951 62.6626 35.8121 61.3137 36.0048C60.1917 36.087 59.6033 35.754 59.5486 35.006L59.3553 33.3281L59.1893 30.0973C59.1585 29.6765 57.764 29.5671 55.0058 29.7689L50.7983 30.0768L48.4089 30.1812C47.9881 30.212 47.9414 34.0694 48.2688 41.7535C48.4502 48.0853 48.623 52.3732 48.7872 54.6172L48.9411 56.721C48.9856 57.3287 48.8214 57.9752 48.4486 58.6605L48.4537 58.7306C48.8277 58.7033 49.074 59.1788 49.1926 60.1571L49.0592 61.2243L48.919 61.2346L48.9138 61.1645L48.883 60.7437L49.1431 66.2237C49.1841 66.7847 51.5342 67.1063 56.1932 67.1883C57.1054 67.4506 57.582 67.8622 57.6231 68.4232C57.3107 69.292 57.2007 70.3576 57.293 71.6199C57.1528 71.6301 57.0998 71.869 57.134 72.3365L56.874 72.6375C51.8512 72.7231 47.2361 72.9199 43.0286 73.2278L41.4157 73.3458C39.2652 73.5032 37.6124 73.7181 36.4574 73.9907C36.3502 73.8105 36.0503 72.2815 35.5577 69.4035L35.6278 69.3984L36.6403 69.7473L36.7105 69.7421L36.9756 69.5112L36.9704 69.4411C36.8598 69.2142 36.6175 69.1144 36.2435 69.1418L36.0178 68.9468L36.0075 68.8066C35.9972 68.6663 37.0069 68.3339 39.0365 67.8094C39.0263 67.6691 40.6557 67.4559 43.9248 67.1696C44.2988 67.1423 44.4447 65.6041 44.3626 62.5551L44.3847 58.0414C43.68 54.192 43.2934 51.7997 43.225 50.8647L41.4375 37.0364L41.3041 35.2132L41.2545 32.6083L41.0475 31.7069L41.2869 31.1254L41.2613 30.7748C41.2305 30.354 39.3668 30.2554 35.6701 30.479C33.0156 30.8142 31.6969 31.0987 31.714 31.3325C31.372 32.4385 31.0692 34.0822 30.8059 36.2635L30.3458 36.7202L30.2004 36.6603L29.7095 36.6962C29.5362 36.8969 29.3327 37.0058 29.0989 37.0229L27.1457 37.3068C27.0807 36.4186 27.014 35.507 26.9456 34.572C26.9205 33.5868 26.8891 32.8371 26.8515 32.3228C26.8606 31.8052 26.8566 31.4295 26.8395 31.1957L26.2938 28.5566C26.2528 27.9956 26.5795 27.6427 27.2739 27.4979L28.0538 26.5948L28.4044 26.5692L29.0971 27.3645L29.2374 27.3542C29.9603 26.3143 31.0931 25.7379 32.6358 25.625ZM48.5388 27.1402L48.3439 27.3659C48.361 27.5997 49.1209 27.7086 50.6238 27.6926C51.4117 27.5409 51.8022 27.4184 51.7954 27.3249L51.7851 27.1846C51.2104 27.0387 50.1985 27.0187 48.7492 27.1248L48.5388 27.1402ZM57.8689 28.4314L57.1677 28.4827L57.1728 28.5528C57.2834 28.7797 57.479 28.8829 57.7595 28.8624L58.1802 28.8316L58.1699 28.6914L57.8689 28.4314ZM59.622 28.3031L59.2714 28.3287L59.2919 28.6092L59.5023 28.5938L59.6272 28.3732L59.622 28.3031ZM44.6033 31.1647L44.6085 31.2348L44.8342 31.4298C45.3017 31.3956 45.747 31.0575 46.17 30.4156L46.1598 30.2753L45.804 30.2308C45.3833 30.2616 44.983 30.5729 44.6033 31.1647ZM29.6907 31.6216L29.3657 31.9978L29.4068 32.5588L29.6377 32.8239L29.7779 32.8137L30.1029 32.4374L30.0669 31.9465L29.7608 31.6164L29.6907 31.6216ZM42.4243 31.2537L42.45 31.6043C42.6416 32.2953 42.8075 32.6356 42.9477 32.6254C43.1815 32.6083 43.3497 32.3375 43.4523 31.813L43.4163 31.3221C43.3958 31.0416 43.2151 30.8198 42.8742 30.6568C42.5469 30.6807 42.397 30.8797 42.4243 31.2537ZM60.8518 29.6936L60.7116 29.7039L60.5679 30.6309L60.9288 30.7455L61.1238 30.5197L61.0827 29.9587L60.8518 29.6936ZM45.4688 33.3574L45.3987 33.3625L45.32 34.2143L45.4021 35.3363L45.5424 35.326L45.5407 34.3391L45.4688 33.3574ZM60.7595 34.2124L60.6295 34.3629L60.6552 34.7135L60.7954 34.7033L61.0554 34.4022L61.0503 34.3321L60.8296 34.2073L60.7595 34.2124ZM46.5618 39.6224L46.4216 39.6327L46.4661 42.1675L46.5892 43.8505C46.6748 45.0192 46.8344 45.595 47.0682 45.5779L47.2084 45.5677L47.3521 44.6407L46.5618 39.6224ZM43.7004 41.9469L43.5755 42.1675L43.6559 42.3026L43.7261 42.2975L43.7004 41.9469ZM44.8567 47.1498L44.6463 47.1652C44.4513 48.3545 44.4035 49.627 44.5027 50.9827L44.5643 51.8242C44.7285 54.0682 45.021 55.1748 45.4417 55.144C45.582 55.1338 45.6481 54.7529 45.6401 54.0015L44.9781 50.7364L45.2159 49.168L44.8567 47.1498ZM46.1361 56.9262L45.8556 56.9468L45.9429 58.1389L46.651 59.1446L46.6253 58.7939C46.533 57.5317 46.3699 56.9091 46.1361 56.9262ZM40.3552 68.4884L40.0303 68.8647L40.0559 69.2153C40.0628 69.3088 40.1597 69.3487 40.3467 69.335L41.8091 69.087L41.7937 68.8766C41.5827 68.5631 41.2201 68.4251 40.7059 68.4627L40.3552 68.4884ZM38.6928 68.892L38.4824 68.9074L38.3575 69.1281L38.5833 69.3231L38.8638 69.3025L38.9887 69.0819L38.6928 68.892ZM53.6311 68.7858C54.346 68.9215 55.171 68.9551 56.106 68.8867L56.236 68.7362L56.2206 68.5258L55.504 68.3668L54.1015 68.4694C53.7776 68.5401 53.6208 68.6456 53.6311 68.7858ZM52.3655 69.795L52.1055 70.096C52.2697 70.413 52.5154 70.5595 52.8427 70.5355L53.2634 70.5047C53.5439 70.4842 53.7258 70.4004 53.809 70.2533L53.7987 70.1131C53.7851 69.9261 53.4475 69.8098 52.7862 69.7642L52.3655 69.795ZM45.6437 70.4279L45.0229 70.6143L45.0434 70.8948L45.6796 70.9187L46.6614 70.8469C46.9419 70.8264 47.0987 70.7209 47.1317 70.5305C46.8877 70.4073 46.532 70.3629 46.0645 70.3971L45.6437 70.4279ZM40.7555 71.0676L40.4151 71.2335L40.4305 71.4439L41.5679 71.5722L42.4642 71.2951L42.459 71.2249L42.158 70.965L40.7555 71.0676ZM37.6974 72.6309L37.7076 72.7712L37.9283 72.896L38.0685 72.8858C38.3821 72.6748 38.5218 72.3356 38.4876 71.8681L38.4824 71.798L38.2567 71.603L38.1865 71.6081C37.8296 71.8692 37.6666 72.2102 37.6974 72.6309ZM56.1539 70.5047L55.8939 70.8057L55.9093 71.0161L56.2001 71.1358L56.39 70.8399L56.3746 70.6296L56.1539 70.5047ZM78.1522 36.8171L80.1568 37.2344L80.7879 37.1882C83.5485 38.3022 86.1408 39.687 88.565 41.3426C91.0998 43.2251 92.4048 44.6806 92.4801 45.7091L92.3398 45.7194C91.9179 45.0922 91.52 44.7923 91.146 44.8197L91.0759 44.8248C90.9356 44.8351 90.8723 44.9337 90.886 45.1207C91.1107 45.6213 91.5964 46.4788 92.3433 47.6931L92.4835 47.6829C92.577 47.676 92.6768 47.4337 92.7828 46.9559L92.853 46.9508C92.9966 46.9873 93.2099 47.6532 93.4927 48.9485L94.2264 50.3048L94.1529 51.2267L94.548 53.7358C94.3063 54.9285 94.1153 56.4935 93.9751 58.4308C93.8531 59.3327 91.9222 62.8111 88.1822 68.8658C86.4422 70.7791 84.684 71.8008 82.9075 71.9308C81.2849 72.2376 79.4451 72.4662 77.3881 72.6168L76.0558 72.7143C75.261 72.7724 73.131 72.2468 69.6658 71.1374C65.1345 67.662 62.7952 64.9191 62.6481 62.9089C61.948 61.6911 61.3482 60.56 60.8487 59.5156C60.8043 58.9078 61.2883 56.8514 62.3008 53.3462C62.1434 51.1957 62.5482 49.6621 63.5151 48.7453C65.3668 43.8628 67.9243 40.5971 71.1877 38.9483C74.0542 37.6575 76.3757 36.9471 78.1522 36.8171ZM67.1412 59.7601L67.172 60.1808C67.9189 61.3952 68.7427 62.6979 69.6435 64.089C69.6777 64.5565 70.6139 65.146 72.4519 65.8574C73.3653 66.7776 74.9879 67.4344 77.3197 67.8277L78.5922 67.8756C80.6184 67.3043 82.1286 66.7473 83.1229 66.2045L85.4935 63.916C87.9062 60.9194 88.9957 58.4662 88.7619 56.5563L88.7157 55.9252C88.3805 55.1977 88.1513 53.9924 88.0281 52.3094C87.9323 51.0004 87.9505 49.9651 88.0828 49.2034C88.0588 48.8762 87.0873 48.1248 85.1683 46.9492C83.7224 45.175 82.2829 44.1288 80.8496 43.8107L80.0081 43.8723C74.5554 44.5063 71.8531 45.1506 71.901 45.8051C70.7744 47.1096 70.0202 48.3633 69.6382 49.5662C68.2585 51.2652 67.5875 52.3718 67.6251 52.8861C67.3447 54.8336 67.1833 57.125 67.1412 59.7601ZM68.0731 42.6307L67.8884 42.9967L67.9089 43.2772C68.1894 43.2567 69.5435 42.1706 71.971 40.0189L72.5166 39.7675L72.9425 39.8069C76.0508 39.2504 77.5947 38.8319 77.5742 38.5514L77.569 38.4813L76.4316 38.353C73.2526 38.5856 70.4665 40.0116 68.0731 42.6307ZM73.6506 43.7031L73.6558 43.7732L73.8114 43.9733L74.7932 43.9014L79.6899 42.4151L79.6797 42.2748L78.3268 42.0918C75.1751 42.6985 73.6164 43.2356 73.6506 43.7031ZM63.9189 61.9699L63.6538 62.2008L63.6897 62.6917C63.8995 64.2743 64.4087 65.1301 65.2171 65.2589L65.2821 65.1837L65.277 65.1135C64.7923 62.987 64.3396 61.9391 63.9189 61.9699ZM73.3359 41.3291L73.3616 41.6797C76.9773 40.9921 78.78 40.5782 78.7697 40.4379L78.1933 40.2686L78.1232 40.2737C75.8792 40.4379 74.2834 40.7897 73.3359 41.3291ZM79.1015 38.2281C79.3832 38.8655 79.9214 39.1551 80.7161 39.097L81.4225 39.1158L81.5576 39.0354L81.532 38.6847C81.4943 38.1705 80.9812 37.9025 79.9926 37.8809C79.3883 37.9721 79.0913 38.0879 79.1015 38.2281ZM68.5045 68.7549L68.0136 68.7908L68.0341 69.0713C68.6863 69.6346 69.8072 69.858 71.3967 69.7417L72.1681 69.6853C71.9104 69.3751 70.6892 69.065 68.5045 68.7549ZM80.265 70.5027L80.2752 70.643C80.2855 70.7832 80.6447 70.8744 81.3528 70.9166C82.1475 70.8584 82.5363 70.7125 82.5192 70.4787L82.509 70.3385C82.4485 70.1549 82.2712 69.9799 81.977 69.8134L81.3459 69.8596C80.8317 69.8972 80.4713 70.1116 80.265 70.5027ZM92.6136 56.2039C92.763 57.603 92.9346 58.3424 93.1285 58.4222L93.2687 58.412C93.2311 57.8977 93.4004 57.3213 93.7767 56.6828L93.7613 56.4724L92.9129 55.477L92.7727 55.4873C92.6792 55.4941 92.6262 55.733 92.6136 56.2039ZM87.1027 44.4811L86.8222 44.5016C87.1472 45.0889 87.8627 45.5535 88.9687 45.8956L89.2492 45.875L89.4442 45.6493L89.4391 45.5791C88.5827 44.7958 87.8039 44.4298 87.1027 44.4811ZM85.4009 42.4201L85.4111 42.5604C85.5924 43.1111 86.2897 43.6476 87.5029 44.1698L87.7133 44.1544L87.8381 43.9338L87.833 43.8637C87.5753 43.5535 86.7646 43.0723 85.4009 42.4201ZM80.6032 40.4447L80.4681 40.5251C81.4077 41.1614 82.1346 41.4607 82.6489 41.423L82.7087 41.2776L82.7036 41.2075C81.9111 40.6545 81.211 40.4002 80.6032 40.4447ZM73.3397 69.3175L73.3551 69.5279C73.3756 69.8084 74.0404 69.9007 75.3494 69.8049L75.4143 69.7297L75.4041 69.5894C74.7758 69.3534 74.0877 69.2628 73.3397 69.3175ZM84.1232 39.4116L83.9282 39.6374C84.4903 40.2543 85.0285 40.5439 85.5428 40.5062C85.5052 39.992 85.0787 39.6237 84.2634 39.4014L84.1232 39.4116ZM67.5413 47.8867L67.5772 48.3776L67.7876 48.3622C68.3543 47.7567 68.6256 47.2903 68.6017 46.9631L68.5966 46.893L68.2459 46.9186C67.9791 47.1261 67.7442 47.4488 67.5413 47.8867ZM83.1534 43.5011C83.4682 43.9481 83.8125 44.1579 84.1865 44.1305L84.2464 43.9851L84.2361 43.8449C84.2053 43.4241 84.0029 43.2274 83.6289 43.2548C83.3051 43.3255 83.1466 43.4076 83.1534 43.5011ZM91.3053 61.4462L91.3104 61.5163C91.6844 61.4889 91.9843 61.091 92.21 60.3225L92.1998 60.1822L91.9894 60.1976C91.7089 60.2181 91.4809 60.6343 91.3053 61.4462ZM68.747 44.1324C69.1678 44.1016 69.5446 43.792 69.8776 43.2037L69.8622 42.9933C69.0845 43.2852 68.7128 43.6649 68.747 44.1324ZM92.3349 60.1018L92.6855 60.0762L92.9814 60.266C92.9734 59.5146 92.8326 59.1959 92.5589 59.3099L92.4187 59.3202L92.3126 58.8344L92.3349 60.1018ZM84.0876 70.7165L84.1578 70.7113C84.9787 70.3692 85.3824 70.1047 85.3687 69.9177L85.2182 69.7877C84.5808 70.0694 84.2039 70.3789 84.0876 70.7165ZM66.8522 66.4083L66.582 66.569L66.5922 66.7093L67.1943 67.2292L67.4748 67.2087C67.4508 66.8814 67.2433 66.6146 66.8522 66.4083ZM71.9389 70.407L71.944 70.4772L72.8556 70.4104L72.9856 70.2599L72.83 70.0598L72.6897 70.0701C72.2222 70.1043 71.972 70.2166 71.9389 70.407ZM93.3713 51.1429L93.1763 51.3687L93.1968 51.6492L93.4277 51.9143L93.6877 51.6133L93.6672 51.3328L93.4414 51.1378L93.3713 51.1429ZM63.5442 51.0697C63.7779 51.0526 63.9763 50.8736 64.1394 50.5327L64.1291 50.3924C63.7084 50.4232 63.5134 50.649 63.5442 51.0697ZM61.9246 58.8023L61.7997 59.023C61.8772 59.4403 61.9628 59.6455 62.0563 59.6387L62.1914 59.5583L62.1657 59.2077L61.9947 58.7972L61.9246 58.8023ZM79.4624 41.2332L79.4676 41.3033L80.1278 40.691L79.9824 40.6312C79.5354 40.9459 79.3621 41.1466 79.4624 41.2332ZM64.7722 48.5828L64.8423 48.5777C65.0259 48.5173 65.1057 48.3234 65.0818 47.9962L64.9415 48.0064C64.8081 48.1102 64.7517 48.3023 64.7722 48.5828ZM65.8088 56.967L65.5488 57.2681L65.5591 57.4083L65.7694 57.3929L65.8943 57.1723L65.8789 56.9619L65.8088 56.967ZM69.1712 46.0754L68.8907 46.0959L68.9113 46.3764L69.0515 46.3662L69.1815 46.2156L69.1712 46.0754ZM105.212 35.6828L107.165 35.3988C107.988 38.2996 108.076 39.8207 107.429 39.9621C106.821 40.0066 107.859 42.6331 110.543 47.8417C111.76 50.3377 112.715 52.1478 113.408 53.2721C115.007 56.4921 116.017 58.0867 116.437 58.0559C116.578 58.0457 116.832 58.3091 117.2 58.8461L117.281 58.9812L118.052 58.9248C118.566 58.8871 119.282 56.7902 120.2 52.634C124.112 43.7937 125.085 39.422 123.118 39.5189C123.024 39.5257 122.909 39.5577 122.772 39.6147C122.916 37.7242 122.87 36.1295 122.634 34.8308L122.964 34.5246C129.052 34.2201 132.107 34.2315 132.131 34.5587C132.365 34.5416 132.569 35.7252 132.744 38.1094C132.519 39.5359 132.15 40.2679 131.635 40.3056C131.118 40.2965 130.837 40.317 130.794 40.3672C130.751 40.4173 130.873 40.4789 131.16 40.5519L130.669 40.5878C129.072 43.8067 128.307 45.8837 128.376 46.8187C127.982 49.1505 127.374 50.793 126.551 51.7463C125.409 56.0598 124.499 59.0404 123.821 60.6881C123.521 61.086 123.283 62.3255 123.106 64.4064L120.45 69.5359C119.24 72.9144 117.483 76.1921 115.177 79.3688L111.91 81.9344C110.535 82.4111 109.45 82.6785 108.655 82.7366C105.196 82.9898 103.441 82.7658 103.389 82.0645C102.998 81.8581 102.646 81.2259 102.334 80.1677C101.581 79.5178 100.537 77.1267 99.2005 72.9945L99.1902 72.8542C99.156 72.3867 99.6064 72.1188 100.541 72.0503C101.336 71.9922 102.708 71.4688 104.656 70.4802C105.264 70.4357 106.263 72.5246 107.653 76.7469C108.052 77.7047 108.345 78.1768 108.532 78.1631L109.093 78.122C109.457 77.9544 109.79 77.3661 110.092 76.3569C110.373 76.3364 111.219 75.0525 112.63 72.5052C113.222 70.9578 113.869 69.524 114.571 68.2036L114.72 67.3467L114.618 65.9442C114.52 65.2463 113.952 64.2304 112.914 62.8963C111.863 61.3752 111.005 59.934 110.342 58.5725C107.713 52.8428 104.812 47.5561 101.637 42.7124C101.437 42.5391 101.219 42.461 100.986 42.4781L96.7235 43.0015L96.4977 42.8065L96.1881 40.5027L95.8272 37.4976L97.0484 36.8442L103.939 35.6349L105.212 35.6828ZM125.126 36.1289L124.269 35.9801L125.933 36.5634L126.899 36.2811L127.04 36.2709L128.242 36.3239L128.232 36.1836C128.218 35.9966 127.74 35.8906 126.798 35.8655L125.747 35.9425C125.326 35.9733 125.119 36.0354 125.126 36.1289ZM130.019 35.5593L129.889 35.7098L129.894 35.78C130.001 35.9601 130.15 36.0667 130.341 36.0998L131.593 35.8672L131.577 35.6568C131.52 35.52 131.351 35.4618 131.071 35.4823L130.019 35.5593ZM97.0501 40.7216L96.915 40.802L96.9561 41.363L97.3272 41.6178L98.2389 41.5511C99.2172 41.4325 99.6978 41.2563 99.6807 41.0226C99.667 40.8356 98.7901 40.7353 97.0501 40.7216ZM103.558 41.0208L103.358 41.1765C103.399 41.7375 103.779 42.4382 104.499 43.2785L104.569 43.2734L104.512 42.502C104.454 41.7073 104.206 41.2084 103.768 41.0054L103.558 41.0208ZM129.217 38.0855L129.227 38.2258L129.528 38.4858C131.137 37.992 131.933 37.6283 131.916 37.3945L131.69 37.1995L131.41 37.2201C130.064 37.4595 129.333 37.748 129.217 38.0855ZM128.21 37.8068L128.009 37.9624L128.035 38.313C128.196 38.5833 128.487 38.703 128.907 38.6722L128.972 38.5969L128.947 38.2463L128.42 37.7914L128.21 37.8068ZM128.104 40.2115L127.753 40.2372L127.779 40.5878L128.129 40.5622L128.104 40.2115ZM127.972 42.2657L127.761 42.2811C126.198 45.9675 125.328 47.8877 125.152 48.0416L125.187 48.5325C125.201 48.7195 125.435 49.0314 125.89 49.4681L125.502 50.9065L125.642 50.8962C126.225 49.8666 126.982 47.3672 127.914 43.398L127.972 42.2657ZM119.181 62.7902L119.206 63.1408L119.557 63.1152C120.305 63.0604 121.099 60.7463 121.94 56.1728C121.933 56.0793 122.148 55.805 122.584 55.3501C122.557 54.9761 122.678 54.7087 122.949 54.5479L122.944 54.4778L122.692 53.9322C122.892 53.4476 122.89 53.4242 122.687 53.862C122.607 54.0559 122.446 54.4202 122.203 54.955C121.594 56.2685 121.047 57.4601 120.561 58.5297C120.422 59.1978 119.962 60.618 119.181 62.7902ZM110.832 52.7556L110.762 52.7607L110.773 52.901C111.953 55.5406 112.636 56.8536 112.823 56.8399L112.893 56.8348L112.883 56.6945C111.797 54.048 111.113 52.735 110.832 52.7556ZM123.561 58.0986L123.631 58.0935C124.379 58.0387 124.857 56.2178 125.064 52.6305L124.994 52.6357C124.807 52.6494 124.616 53.2508 124.421 54.4401C123.883 56.0775 123.596 57.297 123.561 58.0986ZM110.687 55.5862L110.492 55.812L110.507 56.0224L110.728 56.1472L110.998 55.9865L110.993 55.9163L110.687 55.5862ZM112.919 57.1854L112.724 57.4112L112.734 57.5514L113.181 57.8713C113.321 57.861 113.386 57.7857 113.376 57.6455C113.269 57.4653 113.14 57.3103 112.989 57.1803L112.919 57.1854ZM118.839 67.7503L118.849 67.8905L119.2 67.8649C119.527 67.8409 120.096 66.6243 120.907 64.2149L120.901 64.1448C120.247 64.1927 119.559 65.3945 118.839 67.7503ZM116.015 65.7714L116.02 65.8415L116.09 65.8364C116.464 65.809 116.639 65.6317 116.615 65.3045L116.585 64.8837L116.304 64.9042C116.077 65.0149 115.981 65.3039 116.015 65.7714ZM118.392 70.321L117.893 71.2035L117.979 71.4087C118.375 71.0507 118.56 70.6847 118.533 70.3107L118.392 70.321ZM102.507 72.8935L102.312 73.1193C102.723 73.6062 102.968 74.0583 103.045 74.4756L103.647 74.9956L103.923 74.9049L103.897 74.5543C103.846 73.853 103.499 73.2909 102.857 72.8679L102.507 72.8935ZM112.021 76.7092L112.027 76.7794C112.494 76.7452 112.919 76.1266 113.301 74.9236L113.16 74.9339C112.62 75.2554 112.24 75.8472 112.021 76.7092ZM104.161 76.227L104.02 76.2373L104.036 76.4477C104.073 76.9619 104.288 77.3222 104.679 77.5286L104.879 77.373L104.869 77.2327C104.841 76.8587 104.605 76.5235 104.161 76.227ZM113.812 78.0587L113.243 78.9464L113.393 79.0764L113.463 79.0712C114.678 78.3244 115.378 77.6151 115.564 76.9435C115.363 76.7702 115.169 76.6904 114.982 76.7041L114.702 76.7246C114.281 76.7554 113.984 77.2001 113.812 78.0587ZM106.249 78.7532L105.828 78.784L105.844 78.9944L106.15 79.3245L106.781 79.2783L106.981 79.1226C106.964 78.8889 106.72 78.7657 106.249 78.7532ZM109.712 79.8392L111.041 80.6585L111.322 80.638C111.505 80.5775 111.585 80.3837 111.561 80.0564L111.536 79.7058C111.479 79.569 111.287 79.5125 110.959 79.5365L110.328 79.5827C109.907 79.6135 109.702 79.699 109.712 79.8392ZM107.304 80.65L107.25 80.8655C107.414 81.1825 107.73 81.3239 108.197 81.2897L109.179 81.2178L109.304 80.9972L109.299 80.927C109.281 80.6933 108.991 80.5736 108.426 80.5679L107.304 80.65Z" fill="#FF5765"/>
<path d="M5.35175 92.9549L6.08823 92.6382C9.80162 92.1155 13.0632 92.0824 15.873 92.5389L17.0567 92.3723L17.9618 92.2449L18.1501 92.5734L18.6489 96.6215C18.6417 96.9066 18.4989 97.0687 18.2204 97.1079L17.2672 96.39L15.3285 96.2369L14.7019 96.3251L14.3037 96.5231L14.3429 96.8016C15.032 96.9887 15.4693 97.0691 15.655 97.043L15.6746 97.1822C15.7007 97.3679 15.1866 97.5823 14.132 97.8254L15.6255 111.461L15.8313 112.923L18.3884 131.593L18.5453 132.707C18.6041 133.125 19.9332 133.151 22.5325 132.785L35.9007 130.903L38.1484 130.729C38.4269 130.689 38.4793 129.38 38.3055 126.801C38.3533 126.132 38.5165 125.777 38.795 125.738C41.5467 125.445 42.9519 125.508 43.0107 125.926C42.8839 126.37 42.6348 126.618 42.2634 126.67L42.2928 126.879C42.8223 127.278 43.11 127.64 43.1557 127.965C43.306 129.032 43.3428 130.471 43.2662 132.28L43.4132 133.325L43.5318 133.663C43.3252 134.213 43.2513 134.697 43.3101 135.114C43.2173 135.127 43.0741 135.455 42.8805 136.098C41.9116 136.613 40.9398 136.939 39.965 137.076L39.6865 137.116L33.6203 137.401L33.2721 137.45L19.6342 139.938L9.96803 140.376C9.55748 140.15 9.32934 139.874 9.2836 139.549C9.26943 136.758 9.65689 135.307 10.446 135.196C10.6454 134.932 11.5244 134.618 13.083 134.257C13.4773 132.687 12.5531 125.953 10.3103 114.056C10.1314 110.767 9.6839 105.907 8.96786 99.4754L8.86985 98.7792C8.77183 98.0829 8.23544 97.8034 7.26068 97.9406L6.61444 97.8896L6.58504 97.6807C7.36175 97.1453 7.98218 96.845 8.44636 96.7796L8.40715 96.5011L6.77635 96.5177L5.80159 96.6549L5.84079 96.9334C6.02646 96.9073 6.1291 96.9638 6.1487 97.1031C6.04212 97.3548 5.84957 97.5002 5.57107 97.5394L5.29257 97.5786C4.80226 97.4583 4.49503 96.9572 4.37088 96.0752L4.34147 95.8664C4.19119 94.7988 4.39816 94.0832 4.96238 93.7198C5.10163 93.7002 5.23142 93.4452 5.35175 92.9549ZM6.21259 95.0349L6.02332 95.2036L6.04292 95.3428L6.39105 95.2938L6.57052 95.0555L6.56072 94.9859L6.21259 95.0349ZM15.4827 93.801L15.2336 94.0491L15.2532 94.1883L15.7601 94.259L15.7699 94.3286L15.5807 94.4972L14.1783 94.6236L14.1185 94.7031L14.1675 95.0512L14.4058 95.2307L15.7983 95.0346C16.541 94.9301 16.8764 94.6225 16.8045 94.1119C16.4339 93.8327 16.0629 93.7193 15.6915 93.7716L15.4827 93.801ZM10.3989 95.0136C10.6303 95.3124 11.1638 95.403 11.9993 95.2854L12.4867 95.2168L12.7858 94.8197C12.3289 94.6 11.8915 94.5195 11.4738 94.5783L10.9167 94.6567C10.5454 94.709 10.3728 94.828 10.3989 95.0136ZM12.1768 96.0415L11.8482 96.2297L11.858 96.2994L12.0365 96.5583L12.5239 96.4897L12.922 96.2916L12.8926 96.0827L12.4553 96.0023L12.1768 96.0415ZM12.1041 97.5428L12.0541 97.6919L12.1913 98.6667C12.3226 99.2635 12.4812 99.5489 12.6668 99.5228L13.0454 99.1855L12.9768 98.6981C12.8127 97.8691 12.5218 97.484 12.1041 97.5428ZM13.5573 111.397L13.3485 111.427C13.2516 113.429 13.408 114.708 13.8179 115.266C14.1088 115.651 14.2517 115.489 14.2465 114.78L13.9927 112.472C13.8417 111.736 13.6966 111.378 13.5573 111.397ZM41.9525 127.992L41.8132 128.011C41.5791 129.039 41.4718 129.622 41.4914 129.761L41.3461 132.764L41.3853 133.042L41.6236 133.222L41.8324 133.192C42.3967 132.829 42.5586 131.457 42.3182 129.077C42.1672 128.34 42.0453 127.979 41.9525 127.992ZM16.1604 131.907L15.8123 131.956L15.8417 132.165C15.7076 132.893 15.6634 133.42 15.7092 133.745C15.8007 134.395 16.0187 134.767 16.3632 134.86L16.6417 134.821C16.8273 134.795 16.8254 134.109 16.6359 132.763L16.5967 132.484C16.551 132.159 16.4056 131.967 16.1604 131.907ZM35.6408 131.579L34.9445 131.677L34.9739 131.885C34.9935 132.025 35.3083 132.075 35.9183 132.037C35.9706 132.408 36.4177 132.558 37.2598 132.487L38.5631 132.161L38.5239 131.883C37.6419 132.007 36.6809 131.906 35.6408 131.579ZM33.7893 132.549L31.979 132.804L31.9888 132.874C32.0548 133.006 32.2967 133.043 32.7145 132.985L34.2462 132.769L34.2168 132.56L33.7893 132.549ZM10.2635 136.926C10.6348 136.874 10.7976 136.685 10.7519 136.36L10.7323 136.221L10.593 136.241C10.321 136.326 10.2112 136.555 10.2635 136.926ZM17.1368 135.817L16.7887 135.866L16.8377 136.214C17.6928 136.235 21.9063 135.903 29.4782 135.215L29.6077 135.126L29.5881 134.987L17.1368 135.817ZM10.4713 137.394L10.0634 137.522L10.0928 137.731L10.331 137.911L10.5399 137.881L10.7194 137.643L10.7096 137.573L10.4713 137.394ZM33.5361 134.786L33.4165 134.945L33.4361 135.084L34.0823 135.135L35.0571 134.998L35.0375 134.859C35.0113 134.673 34.8358 134.603 34.5109 134.649L33.5361 134.786ZM36.6574 135.27L36.6673 135.339L36.8761 135.31C37.3403 135.245 37.7783 134.994 38.1902 134.557C38.1177 134.378 37.9189 134.311 37.594 134.357C37.4084 134.383 37.0962 134.687 36.6574 135.27ZM38.7158 135.264L37.6812 135.481L37.691 135.55C38.1146 135.869 38.6049 135.99 39.162 135.911L39.3708 135.882C39.6029 135.849 39.7987 135.727 39.9583 135.515C40.2165 135.668 40.4848 135.725 40.7634 135.686L41.3204 135.607C41.8309 135.536 42.0964 135.404 42.1167 135.211L42.1069 135.142C42.0742 134.91 41.3384 134.895 39.8995 135.097L38.7158 135.264ZM19.7961 138.566L18.2741 138.852L18.2937 138.991C18.3395 139.316 19.4597 139.371 21.6544 139.157C23.0933 138.954 24.2574 138.648 25.1465 138.239L25.1171 138.03C23.148 138.166 21.3975 138.341 19.8657 138.557L19.7961 138.566ZM16.9012 139.187L16.762 139.207L16.7914 139.415L16.9306 139.396L16.9012 139.187ZM27.7629 137.658L27.3647 137.856L27.4039 138.135L27.8217 138.076L28.6278 137.749L28.5984 137.54L27.7629 137.658ZM49.4341 96.9033L58.0383 95.479C58.781 95.3745 60.3817 95.4805 62.8405 95.7971C65.892 97.9711 67.7744 99.7416 68.4876 101.109C69.659 102.033 70.7686 104.03 71.8164 107.102C72.6636 107.74 73.2669 109.335 73.6263 111.888L73.9409 113.619L74.6328 120.551C74.8288 121.944 75.9293 123.54 77.9342 125.341C79.728 126.651 80.857 127.273 81.3212 127.207L81.3408 127.347C81.4192 127.904 80.7311 128.9 79.2763 130.335C78.2394 131.712 77.5584 132.423 77.2335 132.469L77.1639 132.479C76.4081 132.491 74.3355 131.386 70.9459 129.165C65.7692 132.071 63.161 133.551 63.1211 133.604C61.3892 134.416 59.4093 134.978 57.1812 135.292L56.8331 135.341C54.2677 135.276 51.9953 134.602 50.0158 133.318C49.6517 133.086 48.8153 132.02 47.5066 130.121C46.5274 129.218 45.9332 128.023 45.7241 126.538L45.4399 124.519C45.2569 123.219 45.4351 121.963 45.9746 120.751C46.3101 118.763 47.0997 116.806 48.3433 114.879C48.9618 113.893 49.6261 113.231 50.3361 112.895C52.5668 111.255 54.8658 110.269 57.2331 109.936L60.3565 109.425L60.7742 109.366C62.5381 109.118 63.8273 109.197 64.6419 109.603L65.0596 109.544C65.2917 109.511 65.3947 109.402 65.3685 109.216C64.5508 107.107 63.4213 105.135 61.9799 103.303C60.7169 101.729 58.6929 101.138 55.9079 101.53L52.9944 101.515C50.6062 102.371 49.448 103.055 49.5199 103.566C48.7215 104.956 48.3602 106.593 48.4359 108.476C48.3757 108.721 47.5566 108.955 45.9784 109.177L45.5802 109.375C45.3946 109.401 45.218 109.828 45.0506 110.656C43.7248 110.654 43.0357 110.467 42.9834 110.095C43.0371 109.804 42.9643 108.11 42.7651 105.014C43.2072 102.774 44.6934 100.553 47.2236 98.3505C48.4188 97.4249 49.1556 96.9425 49.4341 96.9033ZM57.3988 96.9892L57.289 97.2177L57.537 97.4668L57.9548 97.408L58.0048 97.2589L57.7469 96.9402L57.3988 96.9892ZM62.7688 96.8013L62.6295 96.8209L62.6492 96.9602C63.0728 97.2792 63.4238 97.4191 63.7023 97.3799L63.772 97.3701L63.7523 97.2309C63.3287 96.9118 63.0009 96.7686 62.7688 96.8013ZM51.6776 98.7176L51.707 98.9265C51.7731 99.0592 52.015 99.0962 52.4327 99.0374C52.8505 98.9786 53.4111 98.7576 54.1146 98.3746L54.0753 98.0961L53.7968 98.1353C52.7757 98.279 52.0693 98.4731 51.6776 98.7176ZM45.7249 101.828L45.7445 101.967L45.8142 101.957C46.2319 101.898 46.7965 101.369 47.5078 100.37L47.4784 100.161L47.4088 100.171C46.9446 100.236 46.3834 100.788 45.7249 101.828ZM55.3343 99.978L55.0254 100.306L55.2833 100.624L56.1884 100.497L56.3679 100.259L55.8914 99.8996L55.3343 99.978ZM45.8932 107.059L45.7039 107.227L45.851 108.272L45.9206 108.262C46.0997 108.189 46.1697 108.014 46.1305 107.735L46.0521 107.178L45.8932 107.059ZM71.9516 109.071L71.8819 109.081L71.9015 109.22C72.0467 109.578 72.1656 109.751 72.2585 109.738L72.2791 109.38C72.1536 109.161 72.0444 109.058 71.9516 109.071ZM70.6932 111.733L70.5039 111.902L70.5333 112.111C70.817 112.781 71.0517 113.103 71.2374 113.077L71.3766 113.057C71.2917 112.454 71.0871 112.009 70.7628 111.723L70.6932 111.733ZM50.3516 115.023L49.6347 115.479L49.6837 115.827L49.823 115.807C50.1479 115.761 50.3538 115.543 50.4408 115.152L50.4212 115.013L50.3516 115.023ZM50.5168 121.745C51.2338 124.484 51.8244 125.821 52.2885 125.756L53.1122 126.563L53.122 126.633L52.4856 126.651L52.515 126.86C53.5668 127.943 55.5339 128.802 58.4163 129.438C58.7673 129.578 59.2511 129.651 59.8676 129.659C60.7031 129.542 63.7132 127.722 68.8977 124.199C69.2364 123.914 69.3861 123.633 69.3469 123.355L69.2979 123.006C68.6123 121.162 67.9505 118.983 67.3126 116.469L67.1636 116.419C67.0917 115.909 66.5223 115.563 65.4554 115.382C61.8833 114.89 59.4706 114.733 58.2173 114.909C54.8007 116.195 52.5536 117.719 51.4761 119.48C50.7582 120.433 50.4384 121.188 50.5168 121.745ZM70.8372 114.269L70.6087 114.159L70.6381 114.368L70.847 114.339L70.8372 114.269ZM71.3019 115.553L70.8842 115.612L70.9234 115.89L71.1616 116.069L71.3411 115.831L71.3019 115.553ZM69.3189 117.607L69.1394 117.845L69.3875 118.094L69.6562 117.986L69.6268 117.777L69.3885 117.597L69.3189 117.607ZM71.8548 117.463L71.646 117.492L71.6558 117.562C71.9969 119.313 72.3067 120.169 72.5852 120.129L72.7049 119.971L72.6853 119.831C72.5481 118.857 72.2712 118.067 71.8548 117.463ZM69.4531 120.073L69.3932 120.153L69.4521 120.57L69.7001 120.82L69.7698 120.81L70.0091 120.492L69.9503 120.074L69.7316 120.034L69.4531 120.073ZM76.2926 125.785L76.0837 125.814L76.1425 126.232C76.4131 126.81 76.6645 127.082 76.8966 127.049L77.1055 127.02L77.0761 126.811C76.7858 126.094 76.5247 125.752 76.2926 125.785ZM50.6996 129.601L50.58 129.76L50.5898 129.829L50.7486 129.949L51.0968 129.9L51.0772 129.761L50.8389 129.581L50.6996 129.601ZM74.291 127.203L74.1115 127.441C74.2965 127.747 74.5116 127.929 74.7568 127.989L74.8264 127.98L75.0657 127.662L75.0461 127.523L74.6391 127.154L74.291 127.203ZM64.3325 129.599L64.3521 129.738L64.6306 129.699C65.2804 129.607 66.0999 129.208 67.0891 128.501L67.0793 128.431L66.8008 128.47C65.2488 128.878 64.426 129.254 64.3325 129.599ZM75.9894 128.171L75.8894 128.469L75.909 128.608L76.2267 128.848L76.5052 128.808L76.6944 128.64L76.6748 128.5L76.2679 128.132L75.9894 128.171ZM58.8702 131.149L58.6907 131.387C58.8162 131.606 59.0182 131.696 59.2967 131.657C59.7942 131.492 60.0332 131.34 60.0136 131.201L60.0038 131.131L59.7753 131.021L58.8702 131.149ZM51.4182 133.192L51.2485 133.5C51.493 133.891 52.7285 134.262 54.9552 134.611C55.6972 134.838 56.6484 134.87 57.8089 134.707L57.7991 134.637C57.7795 134.498 56.8616 134.366 55.0455 134.243C53.9851 134.109 52.8456 133.748 51.627 133.163L51.4182 133.192ZM78.2836 95.5404L78.4032 95.3815C79.497 95.4169 80.624 95.3529 81.7845 95.1896L87.4938 94.3859L87.7321 94.5653C87.5712 95.44 87.5234 96.1095 87.5888 96.5737L87.7554 97.7573C88.124 99.0309 88.5868 99.6284 89.1438 99.55C89.3505 99.0002 90.2102 98.3822 91.7231 97.6958C95.2542 95.5419 98.2034 94.2984 100.571 93.9651C102.149 93.743 103.941 94.2007 105.947 95.3384C107.365 95.6595 108.819 96.5674 110.307 98.062C112.635 100.811 114.086 104.228 114.661 108.313L114.74 108.87L114.958 113.952L115.955 117.504L115.72 120.874L115.739 121.013L115.818 121.57L118.483 121.337L119.667 121.17C120.456 121.059 120.93 121.064 121.088 121.183C121.38 124.598 121.27 126.341 120.76 126.413C119.91 127.101 118.951 127.52 117.883 127.67L116.421 127.876C114.193 128.189 111.891 128.821 109.516 129.771C107.859 129.767 106.932 129.07 106.736 127.677L106.314 125.18C106.098 123.648 106.336 122.479 107.027 121.672C107.125 119.338 107.321 117.204 107.617 115.269L107.162 109.014C107.302 108.994 107.299 108.474 107.156 107.452C106.979 106.199 105.73 104.552 103.407 102.513C101.784 102.078 100.856 101.878 100.624 101.91C97.9318 102.289 95.6782 103.766 93.8631 106.341C93.6775 106.367 92.7003 107.665 90.9317 110.233C90.3538 110.835 90.2477 112.436 90.6137 115.035C91.3664 119.71 91.8589 122.032 92.091 121.999C93.9934 122.063 94.9707 122.28 95.023 122.651L95.0622 122.93L93.5206 123.076L92.4164 123.302L92.4556 123.581C92.4818 123.766 93.3964 123.874 95.1994 123.905C95.5701 124.184 95.8077 124.695 95.9123 125.437L95.9319 125.577C96.0887 126.691 96.0232 127.907 95.7355 129.226L87.6686 130.432C86.8795 130.543 86.2438 130.23 85.7614 129.494C85.4515 128.638 85.0009 126.95 84.4094 124.429C84.3768 124.197 85.0371 123.844 86.3904 123.37L86.6699 122.833L86.6601 122.763C86.6209 122.485 86.3797 122.117 85.9365 121.658L85.6327 119.5L85.074 115.531L84.4508 109.086C83.8366 104.723 83.3438 102.568 82.9725 102.62L82.6243 102.669L79.4107 103.547C79.0858 103.593 78.6056 103.377 77.9702 102.898L77.931 102.62C78.1108 102.216 78.1713 101.805 78.1125 101.387L77.6106 98.8304L78.2836 95.5404ZM84.5175 95.9409L78.9355 97.6498L78.9551 97.789C78.9747 97.9283 79.3359 97.9721 80.0387 97.9205C83.0559 97.4958 84.535 97.0745 84.4762 96.6568L84.6959 96.1998L84.6763 96.0606L84.5371 96.0802L84.5175 95.9409ZM98.5593 95.3134L98.5691 95.383C98.894 95.3373 99.4902 95.5374 100.358 95.9833L101.153 96.0843L103.371 95.7011L103.421 95.552L103.411 95.4824C103.326 95.2104 103.051 95.1071 102.587 95.1725L102.308 95.2117L101.632 95.4489C100.525 94.9893 99.7403 94.7921 99.2761 94.8574C98.8584 94.9162 98.6194 95.0682 98.5593 95.3134ZM94.0011 97.2331L94.0109 97.3028L94.1796 97.492C96.2828 96.6279 97.3148 96.0566 97.2756 95.7781L97.1363 95.7977C96.1151 95.9415 95.0701 96.4199 94.0011 97.2331ZM80.5731 99.1944L80.8114 99.3739L80.9506 99.3543C81.5475 99.2229 81.8296 99.0412 81.797 98.8091L81.439 98.7885C80.8356 98.8734 80.547 99.0087 80.5731 99.1944ZM81.3957 100.499L81.4153 100.638L82.7284 100.382L82.9373 100.353C83.4015 100.287 83.6963 100.364 83.8218 100.583L83.8512 100.792C83.6518 101.057 83.5685 101.305 83.6011 101.537C83.8593 101.69 84.1509 101.744 84.4758 101.698C84.6151 101.679 84.6717 101.576 84.6455 101.39L84.3917 99.0829L84.2927 98.8838L84.0838 98.9132C83.8314 99.1381 82.9554 99.6401 81.4556 100.419L81.3957 100.499ZM92.8459 98.1058L92.9253 98.1656L92.9351 98.2353C93.3332 98.0372 93.5258 97.8918 93.5127 97.7989L93.4931 97.6597L93.3539 97.6793C92.9956 97.8244 92.8263 97.9666 92.8459 98.1058ZM78.7912 100.155L78.801 100.225C78.8206 100.364 78.953 100.464 79.1981 100.524C79.5695 100.472 79.9578 100.204 80.3632 99.721L80.3534 99.6514L79.2394 99.8082C78.921 99.9003 78.7716 100.016 78.7912 100.155ZM102.969 97.8879C102.995 98.0735 103.432 98.154 104.281 98.1292C104.447 97.9638 104.514 97.7651 104.481 97.533C104.448 97.3009 104.051 97.1675 103.289 97.1328C103.036 97.3577 102.93 97.6094 102.969 97.8879ZM88.9829 100.425L89.0222 100.703C89.672 100.612 90.3095 100.096 90.9345 99.1559L90.9247 99.0863L90.8453 99.0265L90.7757 99.0363C90.2187 99.1147 89.6211 99.5775 88.9829 100.425ZM105.556 97.0977L105.386 97.4056C105.512 97.6246 105.714 97.7145 105.992 97.6753L106.34 97.6263L106.649 97.2988L106.64 97.2292C106.567 97.05 106.322 96.9899 105.904 97.0487L105.556 97.0977ZM97.9255 98.8819L97.9451 99.0211L98.2932 98.9721C98.9764 98.7813 99.305 98.593 99.2788 98.4073L99.2592 98.2681L98.7718 98.3367C98.1749 98.4681 97.8928 98.6498 97.9255 98.8819ZM86.4578 100.141L86.1097 100.19L86.0293 100.628L86.2057 101.881C86.2841 102.438 86.2435 102.822 86.084 103.034L86.133 103.382L86.5487 104.318L86.6271 104.875C86.6794 105.246 86.8314 105.485 87.0831 105.592C87.1295 105.585 87.1936 105.032 87.2754 103.931C87.8534 103.329 88.1227 102.889 88.0835 102.611C88.0509 102.378 87.7237 101.904 87.102 101.187C86.8582 100.463 86.6435 100.115 86.4578 100.141ZM79.652 102.235L79.6716 102.375L80.3679 102.277L80.6072 101.959L80.5974 101.889L80.2297 101.799C79.8315 101.997 79.639 102.142 79.652 102.235ZM104.608 98.9353L104.16 98.7852L104.041 98.9441L104.051 99.0137L104.428 99.1736L104.498 99.1638L104.608 98.9353ZM99.315 100.177L99.4738 100.297L99.5435 100.287C100.565 100.143 101.062 99.9788 101.036 99.7931L100.459 99.7323C99.6834 99.9362 99.3019 100.085 99.315 100.177ZM89.6014 104.314L89.6308 104.523C90.8181 104.214 92.3486 102.981 94.2225 100.823L94.2127 100.754L93.7949 100.812C93.6092 100.839 93.098 101.242 92.2611 102.022C90.3965 102.9 89.51 103.664 89.6014 104.314ZM105.86 99.2561L105.79 99.2659L105.82 99.4748C105.839 99.614 106.232 100.221 106.999 101.297C107.051 101.668 107.17 101.841 107.356 101.815L107.595 101.497L107.556 101.218C107.452 100.476 106.886 99.8217 105.86 99.2561ZM84.3237 103.14L84.4924 103.329L84.6316 103.309L84.7131 102.375L84.5042 102.404C84.365 102.424 84.3048 102.669 84.3237 103.14ZM101.938 101.157L101.968 101.366L103.708 101.121L103.957 100.873L103.918 100.595L103.541 100.435L103.192 100.484C102.33 100.747 101.912 100.972 101.938 101.157ZM95.2019 103.242C96.197 102.912 96.6716 102.585 96.6259 102.26L96.3974 102.15L96.1885 102.18C95.4923 102.278 95.1634 102.632 95.2019 103.242ZM93.0915 104.391L93.1111 104.53L93.32 104.501C93.9777 103.793 94.2772 103.23 94.2184 102.812L94.0791 102.832L94.0595 102.692C93.6882 102.745 93.3655 103.311 93.0915 104.391ZM87.6323 104.449L87.8304 104.847C87.8826 105.219 87.726 105.619 87.3606 106.05C87.6253 106.249 87.774 106.465 87.8067 106.697C88.1334 109.018 88.4592 110.155 88.7841 110.109L88.8538 110.1C89.1075 109.212 89.1396 108.095 88.9501 106.749C88.6619 105.038 88.3256 104.162 87.9412 104.122L87.802 104.141C87.6627 104.161 87.6062 104.264 87.6323 104.449ZM107.394 102.59L107.424 102.799C108.275 104.81 108.776 105.851 108.929 105.925L108.999 105.418L108.911 104.791C108.364 103.259 107.858 102.525 107.394 102.59ZM110.547 102.289L110.477 102.298C110.917 104.745 111.322 105.943 111.693 105.891L111.832 105.871C111.254 103.443 110.826 102.249 110.547 102.289ZM92.3246 104.996L91.9853 105.612L92.0049 105.751L92.0941 105.88L92.4422 105.831L92.5335 104.966L92.3246 104.996ZM90.4731 105.966L90.3535 106.125L90.5221 106.315L90.8006 106.275L90.7712 106.066L90.6124 105.947L90.4731 105.966ZM111.334 111.409L111.344 111.478L111.67 112.284L112.018 112.235C111.887 111.638 111.659 111.363 111.334 111.409ZM109.394 116.794L109.473 116.854L109.543 116.844C109.682 116.824 109.719 116.583 109.654 116.118L109.536 115.283C109.35 115.309 109.303 115.813 109.394 116.794ZM109.133 117.967C109.457 118.253 109.658 118.674 109.737 119.231L109.876 119.211L109.967 118.346L109.801 117.163C109.29 117.235 109.067 117.503 109.133 117.967ZM112.108 116.909L111.969 116.929L112.018 117.277L112.157 117.257L112.108 116.909ZM113.759 117.032L113.815 118.444L114.06 120.184L114.13 120.175C114.629 119.347 114.833 118.608 114.741 117.958L114.731 117.889C114.64 117.239 114.316 116.953 113.759 117.032ZM112.399 120.489L112.419 120.629L112.488 120.619L112.659 119.814L112.639 119.674L112.5 119.694C112.361 119.714 112.327 119.979 112.399 120.489ZM85.5627 124.551L85.4626 124.849L85.4724 124.919C85.6829 125.741 86.0434 126.117 86.554 126.045L86.9717 125.986L87.1512 125.748L87.1316 125.608C86.642 125.157 86.3743 124.768 86.3285 124.443L85.5627 124.551ZM112.784 121.713L112.506 121.752L112.545 122.031L112.863 122.27L113.052 122.102L113.032 121.962L112.784 121.713ZM116.77 122.785L116.799 122.994C118.888 122.7 119.909 122.391 119.864 122.066L119.844 121.927L118.869 122.064C117.437 122.313 116.737 122.553 116.77 122.785ZM88.9476 127.412C88.9803 127.644 89.6 127.675 90.8069 127.505C93.1278 127.178 94.2719 126.899 94.2392 126.667C94.2 126.388 93.3913 126.36 91.8131 126.582C90.0492 126.831 89.0941 127.107 88.9476 127.412ZM107.846 124.965L107.637 124.994L107.696 125.412L107.934 125.591L108.143 125.562L108.183 125.343L108.173 125.274L107.846 124.965ZM117.602 124.159L117.632 124.368C117.757 124.587 117.982 124.674 118.307 124.628C119.05 124.524 119.468 124.299 119.561 123.954L119.532 123.746C119.4 123.48 119.125 123.377 118.707 123.436L118.359 123.485C117.895 123.55 117.643 123.775 117.602 124.159ZM109.632 126.559C109.824 126.911 110.082 127.064 110.407 127.018C112.907 126.619 114.137 126.28 114.098 126.002C113.714 125.63 113.105 125.502 112.269 125.62C110.466 125.921 109.587 126.234 109.632 126.559ZM108.078 128.127L107.839 128.445L107.858 128.584C107.904 128.909 108.553 128.983 109.807 128.807L110.155 128.758L110.692 128.54L110.682 128.471C110.153 128.072 109.378 127.944 108.356 128.088L108.078 128.127ZM132.963 86.4941L135.26 86.1707C136.374 86.0138 138.253 86.2464 140.897 86.8683C141.825 86.7376 143.369 87.112 145.528 87.9915L145.877 87.9425C146.387 87.8706 147.37 86.7854 148.827 84.687C149.198 84.6347 149.986 85.1865 151.19 86.3425C151.68 86.4628 152.276 86.8286 152.977 87.4399L153.007 87.6488C150.813 90.8926 149.738 92.677 149.784 93.0019C149.125 97.4023 148.62 99.864 148.267 100.387C147.516 101.439 146.377 102.428 144.851 103.353C143.096 105.683 141.406 106.962 139.781 107.191L137.702 107.555L133.118 107.774L132.213 107.901C131.842 107.954 131.57 109.554 131.398 112.703L131.974 112.763L132.183 112.734C132.926 112.629 133.699 112.237 134.502 111.555L136.084 111.191L138.869 110.799C143.325 110.171 147.051 110.073 150.047 110.503C150.503 110.723 151.597 111.09 153.326 111.604L155.938 113.011C158.017 114.328 159.377 115.58 160.017 116.768C162.146 119.782 163.37 122.427 163.69 124.701C163.932 126.418 162.886 128.743 160.553 131.675L156.738 135.337C154.706 137.043 152.158 138.111 149.094 138.543L147.184 139.096C138.922 140.259 133.093 139.375 129.698 136.445C127.38 135.446 126.074 133.902 125.78 131.813C124.782 130.438 124.113 128.545 123.773 126.131L123.279 124.638L123.43 123.694L123.639 123.664C124.021 124.699 124.282 125.207 124.421 125.187L124.63 125.158C124.868 122.142 125.105 120.121 125.339 119.094L125.319 118.955L125.249 118.964C124.21 121.336 123.714 122.684 123.76 123.008L123.62 123.028C123.435 123.054 123.306 122.812 123.234 122.301C123.15 121.366 123.76 119.647 125.064 117.144C126.633 115.172 127.401 114.07 127.368 113.838C127.29 109.92 127.302 107.48 127.403 106.519C125.869 104.368 124.998 102.55 124.789 101.065L124.553 99.891C124.442 99.1019 124.541 97.6204 124.85 95.4467C125.289 94.8643 126.087 93.4738 127.245 91.2753C129.339 88.3296 131.245 86.7359 132.963 86.4941ZM130.632 88.5974L130.641 88.667C132.207 88.0206 132.97 87.5581 132.931 87.2796L132.921 87.21L132.713 87.2394C132.063 87.3308 131.369 87.7835 130.632 88.5974ZM149.261 86.259L149.081 86.4973L149.091 86.5669C149.204 86.6931 149.376 86.7398 149.608 86.7071L150.026 86.6483L150.006 86.5091L149.47 86.2296L149.261 86.259ZM132.578 89.8145L132.617 90.093L132.756 90.0734L134.737 89.0135L134.688 88.6654L134.062 88.7536C133.027 89.1359 132.532 89.4896 132.578 89.8145ZM129.41 97.5741L129.459 97.9222C130.698 101.345 131.48 103.034 131.805 102.988C133.017 103.859 134.017 104.239 134.806 104.128C138.334 103.631 140.752 102.486 142.062 100.692C143.072 99.4615 143.751 98.2299 144.098 96.9976C144.378 96.2954 144.495 95.7819 144.449 95.457L144.292 94.343C144.188 93.6003 143.474 92.5647 142.151 91.2362C139.488 90.475 137.668 90.163 136.694 90.3002C134.512 90.6073 132.534 91.8562 130.76 94.0468C129.762 95.7021 129.312 96.8778 129.41 97.5741ZM149.292 90.5149L149.351 90.9327L149.49 90.9131C150.347 89.9404 150.919 89.1262 151.205 88.4705L151.176 88.2616L151.106 88.2714C150.596 88.3433 149.991 89.0911 149.292 90.5149ZM129.568 93.1494L129.856 93.1799C130.135 93.1407 130.464 92.7867 130.843 92.1179L130.804 91.8394L130.386 91.8982C129.789 92.361 129.516 92.7781 129.568 93.1494ZM144.798 90.3665L144.45 90.4155L144.459 90.4852C144.908 91.3214 145.365 91.7068 145.829 91.6414C145.968 91.6218 146.028 91.5424 146.009 91.4032C145.963 91.0782 145.559 90.7327 144.798 90.3665ZM125.762 96.8805L125.971 96.8511C126.097 96.7386 126.403 96.2222 126.889 95.3017L126.66 95.1919C126.382 95.2311 126.082 95.794 125.762 96.8805ZM125.151 99.0967C125.295 100.118 125.635 100.851 126.171 101.296L126.449 101.257C126.588 101.238 126.648 101.158 126.629 101.019C126.169 99.0954 125.799 98.1534 125.521 98.1926C125.289 98.2252 125.165 98.5266 125.151 99.0967ZM143.932 100.358L143.942 100.428L144.36 100.369C145.195 100.251 145.595 99.2247 145.559 97.2889L145.51 96.9408L145.421 96.8113L145.212 96.8407C144.313 98.8608 143.886 100.033 143.932 100.358ZM128.819 99.4323L128.71 99.6608C128.821 100.45 129.177 101.133 129.779 101.711L129.849 101.702L129.81 101.423C129.547 100.229 129.217 99.5657 128.819 99.4323ZM147.513 99.57L147.304 99.5994L147.145 99.977L147.154 100.047L147.363 100.017C147.41 100.011 147.46 99.8616 147.513 99.57ZM142.765 102.156L142.974 102.126C143.498 101.816 143.893 101.429 144.159 100.965L143.911 100.716C143.201 101.384 142.819 101.864 142.765 102.156ZM139.958 103.403L139.988 103.612L140.445 103.831L140.723 103.792C140.955 103.759 141.37 103.346 141.969 102.552L141.949 102.412L141.322 102.501C140.765 102.579 140.311 102.88 139.958 103.403ZM127.247 104.908L126.969 104.947L126.998 105.156C127.567 105.834 128.335 106.246 129.302 106.394L129.283 106.255C128.715 105.246 128.036 104.797 127.247 104.908ZM142.634 102.742L142.395 103.06L142.434 103.338L142.574 103.319L143.062 102.753L143.052 102.683L142.634 102.742ZM130.17 104.994L129.991 105.232C130.242 105.67 130.576 105.86 130.994 105.801L131.283 105.334C131.257 105.148 130.886 105.035 130.17 104.994ZM138.565 104.096L138.325 104.414C138.338 104.507 138.746 104.544 139.548 104.526L140.095 104.378C140.069 104.192 139.745 104.072 139.122 104.018L138.565 104.096ZM131.82 105.614L131.76 105.693L131.838 106.25L132.156 106.489L133.34 106.323L133.301 106.044C132.453 105.737 131.959 105.594 131.82 105.614ZM134.295 106.046L134.046 106.294C134.105 106.712 134.9 106.813 136.432 106.597L138.451 106.313C138.729 106.274 138.879 106.158 138.899 105.966C137.872 105.732 136.569 105.726 134.991 105.948L134.295 106.046ZM129.33 107.597L129.021 107.925L129.099 108.482C129.152 108.853 129.37 109.059 129.754 109.1L130.003 108.851L129.847 107.737L129.539 107.568L129.33 107.597ZM140.906 111.648L139.413 112.142L139.423 112.212C139.482 112.63 141.912 112.572 146.712 112.038L148.243 112.319L148.382 112.3C148.522 112.28 148.697 112.184 148.91 112.012L150.939 111.798L150.909 111.589C150.625 111.25 150.065 111.14 149.23 111.257L148.533 111.355C148.301 111.388 148.102 111.487 147.936 111.652L146.167 111.191C145.166 111.143 143.645 111.263 141.602 111.55L140.906 111.648ZM135.654 112.671L135.375 112.711L135.654 112.671ZM132.099 115.16C132.112 115.253 132.867 115.241 134.366 115.125C134.963 114.994 135.251 114.858 135.232 114.719C134.947 114.38 134.633 114.164 134.288 114.071L133.523 114.179C132.521 114.462 132.046 114.789 132.099 115.16ZM144.044 113.763L143.974 113.772L143.984 113.842C144.01 114.028 144.583 114.065 145.704 113.955L145.764 113.875L145.744 113.736L144.044 113.763ZM150.728 112.822L150.558 113.13L150.787 113.239L151.055 113.131L151.006 112.782L150.728 112.822ZM129.202 116.775L129.579 116.935L130.067 116.866L130.296 116.479L130.237 116.061L129.989 115.812C129.525 115.877 129.262 116.198 129.202 116.775ZM126.533 118.5L126.543 118.569L126.781 118.749C127.856 118.313 128.361 117.864 128.295 117.4L128.227 116.912L128.058 116.723C127.487 117.04 126.979 117.632 126.533 118.5ZM151.84 113.659L151.77 113.669C151.816 113.994 152.389 114.197 153.489 114.279L153.758 114.17L153.738 114.031C153.355 113.659 152.815 113.522 152.118 113.62L151.91 113.649L151.84 113.659ZM134.244 116.278L133.935 116.606L134.173 116.785L134.661 116.717L134.612 116.368L134.383 116.259L134.244 116.278ZM144.081 115.035L143.782 115.433C143.808 115.618 144.991 115.617 147.332 115.43C149.313 115.719 151.069 116.253 152.599 117.032L153.583 116.964L153.823 116.646L153.813 116.577C153.396 115.973 151.81 115.462 149.053 115.046C146.527 114.928 144.87 114.924 144.081 115.035ZM139.693 116.647L139.722 116.856L138.637 117.222L137.146 117.219L132.003 118.014C130.142 120.264 129.268 121.783 129.379 122.572L129.03 123.119L129.049 123.258C130.027 127.854 130.897 130.666 131.657 131.696C131.736 131.921 132.67 132.5 134.458 133.431C134.503 133.756 135.974 134.117 138.87 134.514C143.04 134.543 146.471 134.368 149.163 133.989C152.553 132.849 154.783 131.541 155.853 130.065C157.801 127.424 158.67 125.36 158.461 123.875L158.412 123.527C158.301 122.738 157.177 121.31 155.04 119.244C154.717 118.627 153.932 118.098 152.687 117.658C150.455 116.6 148.272 116.055 146.137 116.024L141.811 116.562L141.752 116.144L141.742 116.075L140.907 116.192C140.257 116.284 139.852 116.435 139.693 116.647ZM154.672 114.61L154.185 114.678L154.204 114.817L157.263 116.872L157.402 116.853L157.382 116.713C156.549 115.505 155.646 114.804 154.672 114.61ZM128.977 119.718L129.006 119.927L129.215 119.897L130.011 119.501L129.972 119.223L129.833 119.242C129.236 119.374 128.951 119.532 128.977 119.718ZM128.1 120.551L128.139 120.83L128.348 120.8L128.697 120.254L128.668 120.045C128.389 120.085 128.2 120.253 128.1 120.551ZM126.465 122.557L126.584 122.895L126.723 122.875C126.955 122.843 127.136 122.107 127.265 120.669L127.125 120.689C126.587 121.238 126.367 121.86 126.465 122.557ZM154.458 117.125L154.179 117.164C154.212 117.396 155.016 118.23 156.591 119.665L156.6 119.735L156.74 119.715L156.7 119.436C155.855 117.804 155.108 117.033 154.458 117.125ZM161.45 121.395L161.171 121.434L161.191 121.574L161.439 121.823L161.489 121.674L161.45 121.395ZM159.917 122.108L159.569 122.157L159.588 122.296L159.836 122.545L159.976 122.526L160.215 122.208L159.917 122.108ZM124.774 127.694L124.645 127.783L124.713 128.271L125.021 128.44L125.091 128.431L124.983 127.665L124.774 127.694ZM161.305 123.901L161.325 124.04C161.384 124.458 161.509 124.677 161.701 124.697L161.841 124.677C162.12 123.975 162.208 123.253 162.104 122.51L162.024 122.45L161.815 122.48C161.397 122.87 161.227 123.344 161.305 123.901ZM128.772 127.344L128.662 127.573L128.719 128.985C128.903 129.953 129.111 130.421 129.343 130.388L129.482 130.369C129.608 130.256 129.655 130.084 129.622 129.852L129.495 128.947C129.338 127.833 129.144 127.292 128.912 127.325L128.772 127.344ZM125.299 128.898L125.16 128.918L125.189 129.127C125.281 129.445 125.397 129.595 125.536 129.575L125.725 129.406L125.696 129.197L125.299 128.898ZM157.585 129.253L157.605 129.392L157.833 129.502C158.948 129.014 159.443 128.328 159.319 127.447L159.251 126.959L159.042 126.989C158.005 128.034 157.52 128.789 157.585 129.253ZM128.85 132.943L128.621 133.33C128.806 133.635 128.968 133.778 129.107 133.759L129.337 133.371C129.311 133.186 129.148 133.043 128.85 132.943ZM131.891 133.864L131.752 133.883L131.781 134.092L132.099 134.332L132.517 134.273L132.487 134.064C132.415 133.885 132.216 133.818 131.891 133.864ZM130.985 134.488L130.815 134.796L130.835 134.935L131.462 134.847L131.403 134.43L130.985 134.488ZM149.061 135.281C143.3 135.713 140.028 135.843 139.246 135.669L137.346 135.794L137.366 135.933C138.035 136.313 138.866 136.503 139.861 136.505L141.94 136.142L142.476 136.421L142.536 136.342L142.675 136.322C143.961 136.378 145.3 136.308 146.693 136.111L148.225 135.896C150.267 135.608 151.647 135.154 152.364 134.532C154.215 133.561 155.135 133.03 155.122 132.937L155.112 132.867C152.319 133.876 150.302 134.68 149.061 135.281ZM152.587 137.128L152.796 137.098C153.168 137.046 154.226 136.329 155.973 134.947L155.953 134.808L155.675 134.847C153.518 135.671 152.489 136.432 152.587 137.128ZM150.599 137.124L150.618 137.263L150.897 137.224C151.713 136.967 152.091 136.63 152.032 136.212L151.754 136.251C151.137 136.575 150.752 136.866 150.599 137.124ZM140.255 138.296L139.867 138.066L139.808 138.146L139.817 138.215L140.116 138.315L140.255 138.296ZM141.329 138.358L141.05 138.397L141.06 138.467C141.132 138.646 141.401 138.703 141.865 138.637L142.631 138.529C142.598 138.297 142.164 138.24 141.329 138.358ZM146.968 137.564L146.858 137.792L146.878 137.932C146.951 138.111 147.126 138.181 147.405 138.141L147.822 138.083L148.698 137.746L148.669 137.537L147.386 137.505L146.968 137.564Z" fill="#FFDB15"/>
<path d="M8.29016 93.861L9.02696 93.545C12.7409 93.026 16.0025 92.9962 18.8119 93.4556L19.9957 93.2902L20.9009 93.1636L21.0889 93.4924L21.5836 97.541C21.5761 97.826 21.4331 97.988 21.1546 98.0269L20.2022 97.3081L18.2636 97.153L17.6369 97.2406L17.2385 97.4382L17.2775 97.7168C17.9663 97.9045 18.4036 97.9854 18.5893 97.9594L18.6088 98.0987C18.6347 98.2844 18.1203 98.4983 17.0655 98.7403L18.5453 112.378L18.7497 113.84L21.288 132.512L21.4437 133.626C21.5021 134.044 22.8311 134.071 25.4309 133.708L38.801 131.84L41.0488 131.668C41.3273 131.629 41.381 130.32 41.2099 127.74C41.2584 127.071 41.4219 126.717 41.7004 126.678C44.4524 126.388 45.8576 126.452 45.916 126.87C45.7887 127.313 45.5393 127.561 45.1679 127.613L45.1971 127.822C45.7262 128.221 46.0135 128.584 46.0589 128.909C46.2081 129.976 46.2435 131.415 46.1651 133.225L46.311 134.269L46.4293 134.607C46.2221 135.157 46.1477 135.641 46.2061 136.059C46.1133 136.072 45.9697 136.399 45.7755 137.042C44.8061 137.556 43.8339 137.881 42.859 138.017L42.5805 138.056L36.514 138.336L36.1658 138.385L22.5254 140.859L12.8588 141.287C12.4484 141.06 12.2206 140.784 12.1752 140.459C12.1638 137.668 12.5527 136.218 13.3419 136.107C13.5416 135.843 14.4209 135.531 15.9799 135.171C16.3758 133.601 15.4583 126.866 13.2275 114.967C13.0519 111.678 12.6093 106.818 11.8997 100.385L11.8024 99.6888C11.7051 98.9924 11.169 98.7124 10.1941 98.8486L9.54789 98.7969L9.5187 98.588C10.2959 98.0534 10.9167 97.7537 11.3809 97.6888L11.342 97.4103L9.71118 97.4252L8.73628 97.5614L8.7752 97.84C8.9609 97.814 9.06348 97.8707 9.08294 98.01C8.97611 98.2615 8.78342 98.4068 8.50487 98.4457L8.22633 98.4846C7.73614 98.3638 7.42942 97.8624 7.30615 96.9803L7.27696 96.7714C7.12775 95.7037 7.33543 94.9884 7.90002 94.6255C8.03929 94.606 8.16934 94.3512 8.29016 93.861ZM9.14891 95.9419L8.95947 96.1103L8.97893 96.2496L9.32711 96.2009L9.50682 95.9628L9.49709 95.8932L9.14891 95.9419ZM18.4202 94.7172L18.1709 94.9651L18.1903 95.1043L18.6972 95.1755L18.707 95.2451L18.5175 95.4136L17.1151 95.5386L17.0552 95.618L17.1038 95.9661L17.3419 96.1459L18.7346 95.9512C19.4774 95.8474 19.8131 95.5402 19.7418 95.0295C19.3714 94.75 19.0005 94.6361 18.6291 94.688L18.4202 94.7172ZM13.3353 95.9248C13.5664 96.2238 14.0998 96.3149 14.9354 96.1982L15.4228 96.1301L15.7224 95.7332C15.2656 95.5131 14.8283 95.4322 14.4105 95.4906L13.8534 95.5684C13.482 95.6203 13.3093 95.7391 13.3353 95.9248ZM15.1121 96.9544L14.7833 97.1424L14.7931 97.212L14.9713 97.4711L15.4587 97.403L15.8571 97.2053L15.8279 96.9964L15.3906 96.9155L15.1121 96.9544ZM15.0379 98.4557L14.9877 98.6047L15.1239 99.5796C15.2547 100.177 15.4129 100.462 15.5986 100.436L15.9775 100.099L15.9094 99.6118C15.7462 98.7827 15.4557 98.3973 15.0379 98.4557ZM16.4772 112.312L16.2683 112.341C16.1694 114.343 16.3246 115.623 16.7339 116.181C17.0244 116.566 17.1674 116.404 17.1629 115.695L16.9115 113.387C16.7612 112.651 16.6165 112.292 16.4772 112.312ZM44.8556 128.935L44.7164 128.954C44.4812 129.981 44.3734 130.564 44.3928 130.703L44.2444 133.706L44.2834 133.984L44.5215 134.164L44.7304 134.135C45.295 133.772 45.4582 132.4 45.2202 130.02C45.07 129.283 44.9485 128.922 44.8556 128.935ZM19.0597 132.824L18.7115 132.872L18.7407 133.081C18.6059 133.81 18.5612 134.337 18.6066 134.662C18.6974 135.312 18.915 135.684 19.2595 135.777L19.538 135.739C19.7237 135.713 19.7225 135.026 19.5343 133.68L19.4954 133.402C19.45 133.077 19.3047 132.884 19.0597 132.824ZM38.5404 132.515L37.844 132.612L37.8732 132.821C37.8927 132.961 38.2074 133.011 38.8174 132.973C38.8693 133.345 39.3163 133.495 40.1584 133.425L41.462 133.101L41.4231 132.822C40.5411 132.945 39.5801 132.843 38.5404 132.515ZM36.6879 133.484L34.8773 133.737L34.8871 133.807C34.953 133.939 35.1948 133.977 35.6126 133.918L37.1446 133.704L37.1154 133.495L36.6879 133.484ZM13.1577 137.837C13.5291 137.785 13.692 137.597 13.6466 137.272L13.6272 137.133L13.4879 137.152C13.2158 137.237 13.1058 137.466 13.1577 137.837ZM20.0321 136.734L19.684 136.783L19.7326 137.131C20.5877 137.154 24.8015 136.825 32.3741 136.146L32.5037 136.057L32.4842 135.917L20.0321 136.734ZM13.365 138.305L12.957 138.433L12.9862 138.642L13.2243 138.822L13.4332 138.793L13.6129 138.554L13.6032 138.485L13.365 138.305ZM36.4325 135.721L36.3127 135.879L36.3321 136.019L36.9783 136.07L37.9532 135.934L37.9337 135.795C37.9078 135.609 37.7323 135.539 37.4074 135.584L36.4325 135.721ZM39.5533 136.207L39.563 136.277L39.7719 136.248C40.2362 136.183 40.6745 135.932 41.0868 135.496C41.0144 135.317 40.8158 135.25 40.4908 135.295C40.3051 135.321 39.9926 135.625 39.5533 136.207ZM41.6117 136.204L40.5769 136.419L40.5866 136.489C41.0099 136.808 41.5001 136.929 42.0572 136.851L42.2661 136.822C42.4982 136.79 42.6941 136.668 42.8539 136.456C43.1119 136.609 43.3802 136.666 43.6588 136.628L44.2159 136.55C44.7265 136.478 44.9921 136.347 45.0126 136.154L45.0028 136.085C44.9704 135.853 44.2346 135.837 42.7955 136.038L41.6117 136.204ZM22.6887 139.487L21.1664 139.771L21.1859 139.91C21.2313 140.235 22.3514 140.291 24.5463 140.079C25.9855 139.878 27.1498 139.574 28.0394 139.165L28.0102 138.956C26.0409 139.09 24.2903 139.263 22.7583 139.477L22.6887 139.487ZM19.7932 140.105L19.6539 140.124L19.6831 140.333L19.8223 140.314L19.7932 140.105ZM30.6563 138.587L30.258 138.784L30.2969 139.063L30.7147 139.004L31.5212 138.679L31.492 138.47L30.6563 138.587ZM52.3685 97.8537L60.9741 96.4381C61.7169 96.3343 63.3175 96.4419 65.776 96.761C68.8254 98.938 70.706 100.71 71.4177 102.078C72.5883 103.003 73.6959 105.002 74.7405 108.075C75.5871 108.713 76.1888 110.31 76.5456 112.863L76.8586 114.594L77.5434 121.527C77.738 122.92 78.8369 124.517 80.84 126.32C82.6325 127.631 83.7609 128.255 84.2251 128.19L84.2446 128.329C84.3225 128.886 83.6333 129.882 82.1771 131.316C81.1388 132.692 80.4571 133.402 80.1322 133.447L80.0625 133.457C79.3068 133.468 77.2352 132.361 73.8479 130.137C68.6683 133.038 66.0585 134.515 66.0186 134.568C64.2859 135.378 62.3054 135.939 60.077 136.25L59.7289 136.299C57.1636 136.231 54.8919 135.555 52.9137 134.269C52.5498 134.036 51.7144 132.97 50.4077 131.07C49.4293 130.165 48.8363 128.97 48.6287 127.485L48.3465 125.465C48.1649 124.165 48.3444 122.91 48.885 121.698C49.2226 119.71 50.0141 117.754 51.2596 115.829C51.8791 114.843 52.5441 114.182 53.2544 113.846C55.4868 112.209 57.7868 111.225 60.1544 110.894L63.2783 110.386L63.6961 110.328C65.4602 110.081 66.7494 110.162 67.5635 110.568L67.9813 110.51C68.2134 110.478 68.3165 110.368 68.2906 110.183C67.475 108.072 66.3474 106.1 64.9079 104.266C63.6465 102.691 61.6231 102.098 58.8377 102.487L55.9242 102.468C53.5351 103.323 52.3762 104.006 52.4476 104.516C51.6479 105.906 51.2849 107.542 51.3587 109.425C51.2983 109.67 50.4789 109.903 48.9005 110.124L48.5021 110.321C48.3164 110.347 48.1394 110.774 47.9712 111.602C46.6454 111.598 45.9565 111.411 45.9046 111.039C45.9585 110.748 45.8875 109.054 45.6914 105.957C46.1358 103.718 47.6242 101.498 50.1566 99.2987C51.3526 98.3743 52.09 97.8926 52.3685 97.8537ZM60.3331 97.9476L60.2231 98.176L60.4709 98.4253L60.8887 98.3669L60.9389 98.2179L60.6813 97.8989L60.3331 97.9476ZM65.7033 97.7651L65.564 97.7846L65.5835 97.9238C66.0068 98.2433 66.3577 98.3836 66.6363 98.3447L66.7059 98.335L66.6864 98.1957C66.2631 97.8762 65.9354 97.7327 65.7033 97.7651ZM54.6102 99.6703L54.6394 99.8792C54.7053 100.012 54.9472 100.049 55.365 99.9908C55.7828 99.9324 56.3436 99.712 57.0475 99.3297L57.0086 99.0511L56.73 99.0901C55.7087 99.2328 55.0021 99.4262 54.6102 99.6703ZM48.6544 102.774L48.6739 102.914L48.7435 102.904C49.1613 102.846 49.7264 102.317 50.4388 101.318L50.4096 101.109L50.34 101.119C49.8757 101.184 49.3139 101.736 48.6544 102.774ZM58.2657 100.934L57.9564 101.262L58.214 101.581L59.1193 101.454L59.299 101.216L58.8228 100.856L58.2657 100.934ZM48.8174 108.005L48.628 108.174L48.774 109.218L48.8436 109.209C49.0228 109.136 49.0929 108.961 49.054 108.682L48.9762 108.125L48.8174 108.005ZM74.8737 110.044L74.8041 110.054L74.8236 110.193C74.9683 110.551 75.0871 110.724 75.18 110.711L75.2009 110.353C75.0757 110.134 74.9666 110.031 74.8737 110.044ZM73.6127 112.705L73.4233 112.873L73.4525 113.082C73.7355 113.753 73.9698 114.075 74.1555 114.049L74.2948 114.029C74.2105 113.426 74.0063 112.981 73.6824 112.695L73.6127 112.705ZM53.2678 115.974L52.5505 116.429L52.5991 116.777L52.7384 116.758C53.0634 116.712 53.2695 116.494 53.3569 116.103L53.3374 115.964L53.2678 115.974ZM53.4263 122.696C54.1405 125.436 54.7297 126.774 55.194 126.709L56.0168 127.517L56.0266 127.587L55.3901 127.605L55.4193 127.814C56.47 128.897 58.4363 129.758 61.318 130.397C61.6689 130.537 62.1526 130.612 62.7691 130.62C63.6047 130.503 66.6166 128.686 71.8047 125.169C72.1436 124.885 72.2937 124.603 72.2547 124.325L72.2061 123.977C71.5223 122.132 70.8627 119.952 70.2273 117.438L70.0783 117.388C70.007 116.877 69.4379 116.53 68.3712 116.348C64.7996 115.853 62.3871 115.693 61.1336 115.869C57.7157 117.151 55.4671 118.672 54.3878 120.432C53.6689 121.385 53.3484 122.139 53.4263 122.696ZM73.7541 115.241L73.5258 115.131L73.555 115.34L73.7639 115.311L73.7541 115.241ZM74.2176 116.525L73.7998 116.583L73.8387 116.862L74.0768 117.042L74.2565 116.804L74.2176 116.525ZM72.2325 118.577L72.0528 118.815L72.3006 119.065L72.5694 118.956L72.5402 118.747L72.3021 118.568L72.2325 118.577ZM74.7686 118.436L74.5597 118.465L74.5694 118.535C74.9088 120.286 75.2177 121.142 75.4963 121.103L75.6161 120.944L75.5966 120.805C75.4604 119.83 75.1844 119.04 74.7686 118.436ZM72.3642 121.044L72.3043 121.123L72.3627 121.541L72.6105 121.79L72.6801 121.781L72.9198 121.463L72.8614 121.045L72.6427 121.005L72.3642 121.044ZM79.198 126.762L78.9891 126.792L79.0475 127.209C79.3175 127.787 79.5686 128.06 79.8007 128.027L80.0096 127.998L79.9804 127.789C79.6909 127.072 79.4301 126.73 79.198 126.762ZM53.6012 130.552L53.4814 130.711L53.4911 130.781L53.6498 130.901L53.998 130.852L53.9785 130.713L53.7404 130.533L53.6012 130.552ZM77.195 128.178L77.0152 128.416C77.1999 128.722 77.4148 128.905 77.6599 128.965L77.7296 128.956L77.9692 128.638L77.9497 128.499L77.5431 128.13L77.195 128.178ZM67.234 130.564L67.2535 130.703L67.532 130.665C68.1819 130.574 69.0019 130.175 69.9918 129.469L69.982 129.399L69.7035 129.438C68.151 129.844 67.3279 130.22 67.234 130.564ZM78.8924 129.148L78.792 129.446L78.8115 129.585L79.129 129.825L79.4075 129.786L79.597 129.618L79.5775 129.478L79.1709 129.109L78.8924 129.148ZM61.7702 132.109L61.5905 132.347C61.7157 132.566 61.9177 132.656 62.1962 132.617C62.6939 132.453 62.933 132.301 62.9135 132.162L62.9038 132.092L62.6754 131.982L61.7702 132.109ZM54.3161 134.144L54.1461 134.452C54.3902 134.844 55.6254 135.216 57.8517 135.567C58.5935 135.795 59.5447 135.828 60.7053 135.665L60.6956 135.596C60.6761 135.456 59.7584 135.324 57.9424 135.199C56.8821 135.064 55.743 134.702 54.525 134.115L54.3161 134.144ZM81.2193 96.5198L81.3392 96.361C82.4329 96.3975 83.56 96.3347 84.7206 96.1725L90.4307 95.3745L90.6688 95.5542C90.5071 96.4288 90.4586 97.0982 90.5235 97.5624L90.6889 98.7462C91.0563 100.02 91.5185 100.618 92.0756 100.54C92.2828 99.9907 93.1431 99.3735 94.6567 98.6887C98.1899 96.5384 101.14 95.2978 103.508 94.967C105.086 94.7464 106.878 95.2059 108.883 96.3456C110.301 96.6682 111.753 97.5775 113.24 99.0736C115.565 101.825 117.013 105.244 117.584 109.329L117.662 109.886L117.875 114.968L118.869 118.521L118.63 121.891L118.649 122.03L118.727 122.587L121.393 122.357L122.577 122.191C123.366 122.081 123.84 122.086 123.998 122.206C124.286 125.621 124.175 127.364 123.664 127.435C122.814 128.122 121.854 128.54 120.787 128.689L119.324 128.894C117.096 129.205 114.794 129.834 112.418 130.782C110.76 130.777 109.834 130.078 109.64 128.685L109.22 126.188C109.006 124.656 109.245 123.487 109.937 122.68C110.037 120.347 110.235 118.213 110.533 116.278L110.085 110.022C110.224 110.002 110.222 109.482 110.079 108.461C109.904 107.207 108.656 105.559 106.336 103.517C104.713 103.081 103.785 102.88 103.553 102.912C100.861 103.288 98.6057 104.763 96.7881 107.336C96.6024 107.362 95.6239 108.659 93.8527 111.225C93.2742 111.827 93.1665 113.427 93.5298 116.027C94.2779 120.703 94.768 123.025 95.0001 122.992C96.9025 123.058 97.8796 123.276 97.9315 123.648L97.9705 123.926L96.4287 124.071L95.3243 124.296L95.3632 124.574C95.3892 124.76 96.3037 124.869 98.1067 124.901C98.4771 125.181 98.7142 125.692 98.818 126.435L98.8374 126.574C98.9931 127.688 98.9264 128.904 98.6374 130.223L90.5693 131.421C89.7801 131.531 89.1447 131.218 88.663 130.48C88.354 129.624 87.9051 127.936 87.3162 125.415C87.2837 125.183 87.9444 124.83 89.2982 124.357L89.5783 123.821L89.5685 123.751C89.5296 123.473 89.2888 123.104 88.846 122.645L88.5443 120.487L87.9897 116.517L87.3729 110.072C86.7631 105.708 86.2725 103.552 85.9011 103.604L85.5529 103.653L82.3384 104.528C82.0135 104.573 81.5335 104.356 80.8986 103.877L80.8597 103.599C81.0399 103.195 81.1008 102.784 81.0424 102.366L80.5431 99.8091L81.2193 96.5198ZM87.4528 96.9266L81.8692 98.6298L81.8887 98.7691C81.9081 98.9084 82.2693 98.9526 82.9721 98.9017C85.9897 98.48 87.4693 98.0602 87.4109 97.6424L87.631 97.1857L87.6116 97.0464L87.4723 97.0659L87.4528 96.9266ZM101.495 96.3132L101.505 96.3828C101.83 96.3374 102.426 96.5381 103.293 96.9849L104.088 97.0867L106.307 96.7057L106.357 96.5567L106.347 96.4871C106.262 96.215 105.987 96.1114 105.523 96.1763L105.244 96.2152L104.567 96.4518C103.462 95.991 102.677 95.7931 102.213 95.8579C101.795 95.9163 101.556 96.0681 101.495 96.3132ZM96.9352 98.2283L96.9449 98.298L97.1134 98.4874C99.2174 97.6254 100.25 97.0551 100.211 96.7766L100.072 96.7961C99.0505 96.9388 98.005 97.4162 96.9352 98.2283ZM83.5052 100.176L83.7433 100.356L83.8826 100.336C84.4796 100.206 84.7619 100.024 84.7294 99.792L84.3715 99.771C83.768 99.8554 83.4792 99.9904 83.5052 100.176ZM84.3265 101.481L84.346 101.621L85.6594 101.366L85.8683 101.337C86.3325 101.272 86.6273 101.349 86.7525 101.568L86.7817 101.777C86.5821 102.042 86.4984 102.29 86.5309 102.522C86.7889 102.675 87.0805 102.729 87.4054 102.684C87.5447 102.664 87.6014 102.562 87.5754 102.376L87.3239 100.068L87.2251 99.8692L87.0162 99.8984C86.7636 100.123 85.887 100.624 84.3864 101.402L84.3265 101.481ZM95.779 99.0998L95.8584 99.1598L95.8681 99.2294C96.2665 99.0317 96.4592 98.8865 96.4462 98.7936L96.4267 98.6544L96.2875 98.6738C95.9291 98.8186 95.7596 98.9606 95.779 99.0998ZM81.7223 101.135L81.7321 101.205C81.7515 101.344 81.8838 101.444 82.1289 101.504C82.5003 101.452 82.8889 101.185 83.2948 100.702L83.285 100.633L82.1709 100.789C81.8524 100.88 81.7029 100.996 81.7223 101.135ZM105.902 98.8921C105.928 99.0778 106.366 99.1587 107.214 99.1347C107.38 98.9695 107.447 98.7709 107.415 98.5387C107.382 98.3066 106.985 98.1728 106.223 98.1373C105.97 98.362 105.863 98.6135 105.902 98.8921ZM91.9138 101.415L91.9527 101.693C92.6027 101.603 93.2406 101.087 93.8666 100.148L93.8569 100.078L93.7776 100.019L93.7079 100.028C93.1508 100.106 92.5528 100.568 91.9138 101.415ZM108.49 98.1045L108.32 98.4122C108.445 98.6314 108.647 98.7215 108.926 98.6826L109.274 98.6339L109.583 98.3067L109.574 98.2371C109.501 98.0579 109.256 97.9974 108.838 98.0558L108.49 98.1045ZM100.858 99.881L100.877 100.02L101.226 99.9716C101.909 99.7815 102.238 99.5935 102.212 99.4078L102.192 99.2686L101.705 99.3367C101.108 99.4675 100.825 99.6489 100.858 99.881ZM89.389 101.129L89.0408 101.177L88.9599 101.615L89.1351 102.868C89.2129 103.425 89.172 103.81 89.0122 104.021L89.0609 104.369L89.4757 105.305L89.5535 105.862C89.6054 106.234 89.7572 106.473 90.0087 106.58C90.0552 106.573 90.1198 106.02 90.2027 104.92C90.7813 104.318 91.0511 103.878 91.0122 103.6C90.9798 103.368 90.6531 102.893 90.0321 102.175C89.7891 101.451 89.5747 101.103 89.389 101.129ZM82.5811 103.216L82.6006 103.355L83.2969 103.258L83.5365 102.941L83.5268 102.871L83.1592 102.78C82.7608 102.978 82.5681 103.123 82.5811 103.216ZM107.54 99.9412L107.093 99.7907L106.973 99.9494L106.983 100.019L107.36 100.179L107.43 100.17L107.54 99.9412ZM102.246 101.178L102.405 101.298L102.474 101.288C103.496 101.145 103.993 100.981 103.968 100.795L103.391 100.734C102.615 100.937 102.233 101.085 102.246 101.178ZM92.5284 105.305L92.5576 105.514C93.7451 105.206 95.2769 103.974 97.1529 101.819L97.1432 101.749L96.7254 101.807C96.5397 101.833 96.028 102.236 95.1904 103.016C93.3249 103.892 92.4376 104.655 92.5284 105.305ZM108.792 100.263L108.722 100.273L108.751 100.482C108.771 100.621 109.163 101.229 109.929 102.305C109.981 102.677 110.1 102.849 110.286 102.823L110.525 102.506L110.486 102.227C110.382 101.485 109.818 100.83 108.792 100.263ZM87.2519 104.125L87.4203 104.315L87.5596 104.295L87.642 103.361L87.4331 103.39C87.2938 103.409 87.2334 103.655 87.2519 104.125ZM104.868 102.16L104.897 102.369L106.638 102.126L106.888 101.878L106.849 101.6L106.471 101.439L106.123 101.488C105.261 101.751 104.842 101.975 104.868 102.16ZM98.13 104.238C99.1254 103.91 99.6003 103.583 99.5549 103.258L99.3265 103.148L99.1176 103.177C98.4213 103.274 98.0921 103.628 98.13 104.238ZM96.0184 105.385L96.0379 105.524L96.2468 105.495C96.9052 104.788 97.2052 104.225 97.1469 103.807L97.0076 103.827L96.9881 103.688C96.6167 103.74 96.2935 104.305 96.0184 105.385ZM90.5591 105.438L90.7568 105.836C90.8087 106.208 90.6517 106.608 90.2858 107.038C90.5503 107.238 90.6988 107.454 90.7313 107.686C91.0556 110.007 91.3803 111.145 91.7053 111.099L91.7749 111.09C92.0295 110.202 92.0628 109.085 91.8746 107.739C91.5882 106.028 91.2528 105.152 90.8684 105.111L90.7291 105.13C90.5898 105.15 90.5332 105.252 90.5591 105.438ZM110.323 103.599L110.352 103.808C111.201 105.819 111.702 106.861 111.854 106.935L111.925 106.428L111.838 105.801C111.292 104.268 110.787 103.534 110.323 103.599ZM113.476 103.3L113.406 103.31C113.843 105.758 114.247 106.955 114.618 106.904L114.758 106.884C114.182 104.456 113.755 103.261 113.476 103.3ZM95.2509 105.989L94.9109 106.605L94.9304 106.744L95.0195 106.874L95.3677 106.825L95.4598 105.96L95.2509 105.989ZM93.3984 106.958L93.2786 107.117L93.4471 107.306L93.7256 107.267L93.6964 107.058L93.5377 106.939L93.3984 106.958ZM114.254 112.421L114.263 112.491L114.589 113.297L114.937 113.249C114.806 112.652 114.579 112.376 114.254 112.421ZM112.308 117.805L112.387 117.865L112.457 117.855C112.596 117.835 112.634 117.594 112.569 117.129L112.452 116.294C112.266 116.32 112.218 116.823 112.308 117.805ZM112.046 118.977C112.37 119.263 112.571 119.685 112.649 120.242L112.788 120.223L112.88 119.358L112.715 118.174C112.204 118.245 111.981 118.513 112.046 118.977ZM115.022 117.922L114.883 117.942L114.932 118.29L115.071 118.271L115.022 117.922ZM116.673 118.047L116.728 119.459L116.971 121.2L117.041 121.19C117.541 120.363 117.745 119.624 117.654 118.975L117.645 118.905C117.554 118.255 117.23 117.969 116.673 118.047ZM115.31 121.503L115.329 121.642L115.399 121.633L115.57 120.828L115.551 120.688L115.412 120.708C115.272 120.727 115.238 120.992 115.31 121.503ZM88.4693 125.538L88.3689 125.836L88.3787 125.905C88.5883 126.728 88.9484 127.104 89.4591 127.032L89.8769 126.974L90.0566 126.736L90.0372 126.597C89.548 126.144 89.2807 125.756 89.2353 125.431L88.4693 125.538ZM115.694 122.727L115.415 122.766L115.454 123.045L115.772 123.284L115.961 123.116L115.942 122.977L115.694 122.727ZM119.678 123.803L119.707 124.012C121.796 123.72 122.818 123.412 122.773 123.087L122.753 122.948L121.778 123.084C120.346 123.331 119.646 123.571 119.678 123.803ZM91.8513 128.402C91.8838 128.634 92.5035 128.666 93.7105 128.497C96.0317 128.173 97.1761 127.895 97.1437 127.662C97.1047 127.384 96.2961 127.355 94.7177 127.575C92.9536 127.822 91.9981 128.098 91.8513 128.402ZM110.752 125.974L110.543 126.003L110.601 126.421L110.839 126.6L111.048 126.571L111.089 126.353L111.079 126.283L110.752 125.974ZM120.509 125.178L120.538 125.387C120.664 125.606 120.889 125.693 121.214 125.648C121.956 125.544 122.375 125.32 122.469 124.975L122.439 124.766C122.308 124.501 122.033 124.397 121.615 124.456L121.267 124.504C120.803 124.569 120.55 124.794 120.509 125.178ZM112.537 127.57C112.728 127.922 112.986 128.075 113.311 128.03C115.811 127.633 117.042 127.296 117.003 127.017C116.62 126.645 116.01 126.517 115.175 126.634C113.371 126.933 112.491 127.245 112.537 127.57ZM110.981 129.137L110.741 129.454L110.761 129.593C110.806 129.918 111.456 129.993 112.709 129.818L113.057 129.769L113.595 129.552L113.585 129.483C113.056 129.083 112.281 128.955 111.259 129.098L110.981 129.137ZM135.907 87.5285L138.205 87.2073C139.32 87.0516 141.198 87.2861 143.841 87.9107C144.77 87.7809 146.313 88.1569 148.472 89.0385L148.82 88.9898C149.331 88.9185 150.315 87.8343 151.773 85.7373C152.145 85.6854 152.932 86.238 154.135 87.3952C154.625 87.516 155.22 87.8824 155.921 88.4944L155.95 88.7033C153.753 91.9449 152.677 93.7282 152.722 94.0532C152.059 98.4529 151.551 100.914 151.198 101.437C150.446 102.488 149.306 103.476 147.779 104.399C146.021 106.728 144.33 108.005 142.705 108.232L140.626 108.594L136.041 108.808L135.136 108.935C134.765 108.987 134.491 110.587 134.316 113.735L134.893 113.797L135.102 113.768C135.844 113.664 136.618 113.272 137.422 112.591L139.004 112.228L141.79 111.839C146.246 111.216 149.972 111.121 152.967 111.555C153.424 111.775 154.517 112.143 156.245 112.659L158.856 114.069C160.934 115.388 162.292 116.641 162.932 117.83C165.057 120.846 166.279 123.492 166.597 125.766C166.837 127.484 165.789 129.808 163.453 132.737L159.633 136.395C157.6 138.099 155.051 139.165 151.987 139.593L150.076 140.144C141.812 141.299 135.985 140.409 132.593 137.476C130.276 136.474 128.971 134.929 128.679 132.84C127.683 131.465 127.015 129.57 126.678 127.156L126.185 125.663L126.338 124.719L126.546 124.689C126.928 125.725 127.188 126.233 127.327 126.213L127.536 126.184C127.777 123.169 128.016 121.147 128.251 120.121L128.231 119.981L128.162 119.991C127.12 122.361 126.622 123.709 126.668 124.034L126.528 124.053C126.343 124.079 126.214 123.837 126.143 123.326C126.06 122.391 126.671 120.673 127.978 118.171C129.549 116.2 130.318 115.099 130.285 114.867C130.211 110.948 130.225 108.509 130.328 107.548C128.796 105.396 127.927 103.577 127.719 102.091L127.484 100.917C127.374 100.128 127.474 98.6464 127.786 96.4729C128.225 95.8909 129.025 94.5012 130.185 92.3039C132.282 89.3603 134.19 87.7685 135.907 87.5285ZM133.574 89.6294L133.584 89.6991C135.15 89.0542 135.914 88.5925 135.875 88.3139L135.866 88.2443L135.657 88.2735C135.007 88.3643 134.313 88.8163 133.574 89.6294ZM152.206 87.3097L152.026 87.5478L152.036 87.6175C152.148 87.7438 152.32 87.7907 152.553 87.7583L152.97 87.6999L152.951 87.5606L152.415 87.2805L152.206 87.3097ZM135.52 90.8485L135.558 91.127L135.698 91.1076L137.68 90.0496L137.631 89.7015L137.004 89.789C135.969 90.1704 135.474 90.5235 135.52 90.8485ZM132.344 98.6049L132.392 98.953C133.628 102.377 134.409 104.067 134.734 104.022C135.944 104.894 136.944 105.275 137.733 105.164C141.261 104.671 143.681 103.528 144.992 101.736C146.004 100.506 146.684 99.2751 147.032 98.0431C147.313 97.3413 147.43 96.8279 147.385 96.5029L147.229 95.3887C147.126 94.646 146.413 93.6096 145.091 92.2798C142.428 91.5159 140.61 91.2021 139.635 91.3384C137.453 91.6433 135.474 92.8901 133.697 95.079C132.697 96.7332 132.246 97.9085 132.344 98.6049ZM152.233 91.5657L152.291 91.9835L152.43 91.9641C153.289 90.9922 153.861 90.1786 154.148 89.5232L154.119 89.3143L154.049 89.324C153.539 89.3954 152.933 90.1426 152.233 91.5657ZM132.506 94.1804L132.795 94.2111C133.073 94.1722 133.402 93.8185 133.782 93.1501L133.743 92.8716L133.326 92.93C132.727 93.3922 132.454 93.809 132.506 94.1804ZM147.739 91.4128L147.39 91.4615L147.4 91.5311C147.848 92.3677 148.305 92.7536 148.769 92.6887C148.908 92.6693 148.968 92.5899 148.949 92.4506C148.903 92.1257 148.5 91.7797 147.739 91.4128ZM128.696 97.9076L128.905 97.8784C129.032 97.7661 129.338 97.25 129.825 96.33L129.597 96.2199C129.318 96.2589 129.018 96.8214 128.696 97.9076ZM128.083 100.123C128.226 101.145 128.565 101.878 129.101 102.324L129.379 102.285C129.518 102.265 129.578 102.186 129.559 102.047C129.101 100.123 128.732 99.1805 128.454 99.2194C128.222 99.2519 128.098 99.5531 128.083 100.123ZM146.863 101.404L146.873 101.473L147.29 101.415C148.126 101.298 148.527 100.272 148.493 98.3359L148.444 97.9878L148.355 97.8582L148.146 97.8874C147.245 99.9066 146.818 101.079 146.863 101.404ZM131.751 100.463L131.641 100.691C131.752 101.48 132.107 102.164 132.709 102.743L132.779 102.733L132.74 102.454C132.478 101.26 132.149 100.596 131.751 100.463ZM150.445 100.619L150.236 100.648L150.076 101.026L150.086 101.095L150.295 101.066C150.341 101.06 150.391 100.911 150.445 100.619ZM145.694 103.2L145.903 103.171C146.428 102.861 146.823 102.474 147.09 102.011L146.842 101.761C146.131 102.429 145.748 102.908 145.694 103.2ZM142.886 104.444L142.915 104.653L143.372 104.873L143.651 104.834C143.883 104.802 144.298 104.389 144.897 103.595L144.878 103.456L144.251 103.543C143.694 103.621 143.239 103.922 142.886 104.444ZM130.173 105.937L129.895 105.976L129.924 106.185C130.492 106.862 131.26 107.276 132.227 107.425L132.208 107.285C131.641 106.276 130.963 105.826 130.173 105.937ZM145.563 103.786L145.323 104.104L145.362 104.382L145.502 104.363L145.991 103.797L145.981 103.728L145.563 103.786ZM133.097 106.025L132.917 106.263C133.167 106.702 133.502 106.892 133.92 106.833L134.209 106.367C134.183 106.181 133.812 106.067 133.097 106.025ZM141.492 105.136L141.252 105.453C141.265 105.546 141.673 105.584 142.475 105.567L143.022 105.419C142.996 105.233 142.672 105.113 142.049 105.058L141.492 105.136ZM134.745 106.647L134.685 106.726L134.763 107.283L135.081 107.523L136.265 107.357L136.226 107.079C135.378 106.771 134.885 106.627 134.745 106.647ZM137.22 107.082L136.971 107.33C137.029 107.748 137.824 107.849 139.356 107.635L141.376 107.353C141.654 107.314 141.804 107.199 141.824 107.006C140.797 106.771 139.495 106.764 137.916 106.985L137.22 107.082ZM132.253 108.628L131.944 108.955L132.022 109.512C132.074 109.884 132.292 110.09 132.676 110.131L132.926 109.883L132.77 108.769L132.462 108.599L132.253 108.628ZM143.825 112.69L142.332 113.183L142.342 113.253C142.401 113.67 144.83 113.615 149.631 113.086L151.162 113.369L151.301 113.35C151.44 113.33 151.616 113.235 151.829 113.063L153.858 112.85L153.829 112.641C153.545 112.302 152.985 112.191 152.15 112.308L151.453 112.405C151.221 112.438 151.022 112.537 150.856 112.702L149.087 112.239C148.086 112.19 146.564 112.308 144.522 112.593L143.825 112.69ZM138.572 113.709L138.294 113.747L138.572 113.709ZM135.015 116.194C135.028 116.286 135.783 116.275 137.282 116.161C137.879 116.03 138.168 115.895 138.148 115.756C137.864 115.417 137.55 115.2 137.206 115.106L136.44 115.213C135.438 115.495 134.963 115.822 135.015 116.194ZM146.961 114.808L146.892 114.818L146.901 114.887C146.927 115.073 147.501 115.111 148.621 115.002L148.681 114.923L148.662 114.783L146.961 114.808ZM153.646 113.874L153.476 114.182L153.705 114.292L153.973 114.183L153.925 113.835L153.646 113.874ZM132.116 117.806L132.493 117.966L132.981 117.898L133.211 117.511L133.152 117.093L132.905 116.843C132.44 116.908 132.177 117.229 132.116 117.806ZM129.446 119.528L129.456 119.597L129.694 119.777C130.769 119.343 131.274 118.893 131.209 118.429L131.141 117.942L130.973 117.752C130.402 118.069 129.893 118.661 129.446 119.528ZM154.757 114.713L154.688 114.722C154.733 115.047 155.306 115.251 156.406 115.334L156.675 115.225L156.656 115.086C156.272 114.714 155.732 114.576 155.036 114.674L154.827 114.703L154.757 114.713ZM137.159 117.314L136.85 117.641L137.088 117.821L137.575 117.753L137.527 117.404L137.298 117.294L137.159 117.314ZM146.997 116.081L146.698 116.478C146.724 116.663 147.907 116.664 150.248 116.479C152.229 116.77 153.984 117.305 155.513 118.086L156.497 118.019L156.737 117.702L156.727 117.632C156.312 117.028 154.725 116.516 151.969 116.096C149.444 115.976 147.786 115.971 146.997 116.081ZM142.607 117.688L142.636 117.897L141.551 118.262L140.06 118.257L134.916 119.047C133.053 121.295 132.177 122.814 132.287 123.603L131.938 124.149L131.957 124.288C132.931 128.885 133.797 131.699 134.556 132.729C134.635 132.954 135.568 133.534 137.355 134.467C137.401 134.792 138.871 135.155 141.767 135.555C145.937 135.587 149.368 135.415 152.06 135.039C155.451 133.903 157.683 132.597 158.754 131.122C160.705 128.483 161.576 126.421 161.369 124.935L161.32 124.587C161.21 123.798 160.087 122.369 157.952 120.301C157.629 119.683 156.845 119.154 155.6 118.712C153.37 117.652 151.187 117.105 149.052 117.072L144.725 117.605L144.667 117.188L144.657 117.118L143.822 117.235C143.172 117.325 142.767 117.477 142.607 117.688ZM157.588 115.666L157.101 115.734L157.12 115.873L160.177 117.931L160.316 117.911L160.297 117.772C159.465 116.563 158.562 115.861 157.588 115.666ZM131.888 120.748L131.917 120.957L132.126 120.928L132.923 120.533L132.884 120.254L132.745 120.273C132.148 120.404 131.862 120.562 131.888 120.748ZM131.011 121.581L131.05 121.859L131.259 121.83L131.608 121.284L131.579 121.075C131.3 121.114 131.111 121.283 131.011 121.581ZM129.374 123.584L129.492 123.923L129.631 123.903C129.864 123.871 130.045 123.136 130.175 121.698L130.036 121.717C129.497 122.266 129.277 122.888 129.374 123.584ZM157.372 118.181L157.093 118.22C157.126 118.452 157.929 119.286 159.502 120.723L159.512 120.793L159.651 120.773L159.612 120.495C158.769 118.861 158.022 118.09 157.372 118.181ZM164.359 122.458L164.081 122.497L164.1 122.636L164.348 122.886L164.398 122.737L164.359 122.458ZM162.826 123.169L162.478 123.218L162.497 123.357L162.745 123.607L162.884 123.587L163.124 123.27L162.826 123.169ZM127.678 128.72L127.548 128.809L127.616 129.297L127.924 129.467L127.994 129.457L127.887 128.691L127.678 128.72ZM164.212 124.964L164.232 125.103C164.29 125.521 164.416 125.74 164.608 125.76L164.747 125.741C165.028 125.039 165.116 124.317 165.012 123.574L164.933 123.514L164.724 123.543C164.305 123.933 164.135 124.406 164.212 124.964ZM131.676 128.374L131.566 128.603L131.621 130.015C131.804 130.983 132.011 131.451 132.244 131.419L132.383 131.399C132.509 131.287 132.556 131.115 132.524 130.883L132.397 129.978C132.241 128.863 132.047 128.322 131.815 128.355L131.676 128.374ZM128.201 129.925L128.062 129.944L128.091 130.153C128.183 130.472 128.298 130.621 128.438 130.602L128.627 130.433L128.598 130.224L128.201 129.925ZM160.487 130.312L160.507 130.451L160.735 130.561C161.85 130.074 162.346 129.389 162.223 128.507L162.155 128.02L161.946 128.049C160.908 129.093 160.422 129.848 160.487 130.312ZM131.748 133.973L131.519 134.36C131.703 134.666 131.865 134.809 132.005 134.789L132.234 134.402C132.208 134.216 132.047 134.073 131.748 133.973ZM134.788 134.897L134.649 134.916L134.678 135.125L134.996 135.365L135.414 135.307L135.384 135.098C135.312 134.919 135.113 134.852 134.788 134.897ZM133.882 135.521L133.712 135.828L133.731 135.968L134.358 135.88L134.299 135.462L133.882 135.521ZM151.957 136.332C146.195 136.758 142.923 136.884 142.141 136.709L140.242 136.833L140.261 136.972C140.93 137.352 141.761 137.543 142.755 137.546L144.835 137.185L145.371 137.465L145.431 137.386L145.57 137.366C146.856 137.423 148.195 137.354 149.588 137.16L151.12 136.946C153.162 136.66 154.543 136.207 155.261 135.586C157.113 134.617 158.033 134.086 158.02 133.993L158.01 133.924C155.216 134.93 153.198 135.732 151.957 136.332ZM155.481 138.182L155.69 138.153C156.062 138.101 157.121 137.385 158.869 136.005L158.849 135.865L158.571 135.904C156.414 136.726 155.384 137.486 155.481 138.182ZM153.493 138.176L153.512 138.315L153.791 138.276C154.607 138.02 154.986 137.683 154.927 137.265L154.649 137.304C154.031 137.627 153.646 137.918 153.493 138.176ZM143.148 139.338L142.76 139.108L142.701 139.187L142.71 139.257L143.008 139.357L143.148 139.338ZM144.221 139.4L143.943 139.439L143.952 139.509C144.025 139.688 144.293 139.745 144.757 139.681L145.523 139.573C145.491 139.341 145.057 139.284 144.221 139.4ZM149.862 138.612L149.752 138.841L149.771 138.98C149.844 139.159 150.019 139.229 150.298 139.19L150.715 139.132L151.591 138.797L151.562 138.588L150.28 138.554L149.862 138.612Z" fill="#FF5765"/>
</svg>
